solid Untitled-58c61f5b
facet normal 0.0 0.0 -1.0
  outer loop
    vertex 720.4775198926573 1965.9564540183453 0.0
    vertex 723.0325647810882 1961.8707528363616 0.0
    vertex 720.4775198926573 1899.575262686509 0.0
  endloop
endfacet
facet normal 0.0 0.0 -1.0
  outer loop
    vertex 723.0325647810882 1961.8707528363616 0.0
    vertex 720.4775198926573 1965.9564540183453 0.0
    vertex 779.8182818408164 1965.9564540183453 0.0
  endloop
endfacet
facet normal 0.0 0.0 -1.0
  outer loop
    vertex 723.0325647810882 1961.8707528363616 0.0
    vertex 779.8182818408164 1965.9564540183453 0.0
    vertex 776.0153879490872 1961.8707528363616 0.0
  endloop
endfacet
facet normal 0.0 0.0 -1.0
  outer loop
    vertex 776.0153879490872 1961.8707528363616 0.0
    vertex 779.8182818408164 1965.9564540183453 0.0
    vertex 776.0153879490872 1902.6018320043647 0.0
  endloop
endfacet
facet normal 0.0 0.0 -1.0
  outer loop
    vertex 720.4775198926573 1899.575262686509 0.0
    vertex 723.0325647810882 1902.6018320043647 0.0
    vertex 779.8182818408164 1899.575262686509 0.0
  endloop
endfacet
facet normal 0.0 0.0 -1.0
  outer loop
    vertex 723.0325647810882 1902.6018320043647 0.0
    vertex 720.4775198926573 1899.575262686509 0.0
    vertex 723.0325647810882 1961.8707528363616 0.0
  endloop
endfacet
facet normal 0.0 0.0 -1.0
  outer loop
    vertex 779.8182818408164 1899.575262686509 0.0
    vertex 723.0325647810882 1902.6018320043647 0.0
    vertex 776.0153879490872 1902.6018320043647 0.0
  endloop
endfacet
facet normal 0.0 0.0 -1.0
  outer loop
    vertex 779.8182818408164 1899.575262686509 0.0
    vertex 776.0153879490872 1902.6018320043647 0.0
    vertex 779.8182818408164 1965.9564540183453 0.0
  endloop
endfacet
facet normal 0.0 0.0 -1.0
  outer loop
    vertex 776.0153879490872 1961.8707528363616 3.0
    vertex 723.0325647810882 1902.6018320043647 3.0
    vertex 723.0325647810882 1961.8707528363616 3.0
  endloop
endfacet
facet normal 0.0 0.0 -1.0
  outer loop
    vertex 723.0325647810882 1902.6018320043647 3.0
    vertex 776.0153879490872 1961.8707528363616 3.0
    vertex 776.0153879490872 1902.6018320043647 3.0
  endloop
endfacet
facet normal 0.0 -1.0 0.0
  outer loop
    vertex 776.0153879490872 1961.8707528363616 3.0
    vertex 723.0325647810882 1961.8707528363616 0.0
    vertex 776.0153879490872 1961.8707528363616 0.0
  endloop
endfacet
facet normal 0.0 -1.0 0.0
  outer loop
    vertex 723.0325647810882 1961.8707528363616 0.0
    vertex 776.0153879490872 1961.8707528363616 3.0
    vertex 723.0325647810882 1961.8707528363616 3.0
  endloop
endfacet
facet normal -1.0 0.0 0.0
  outer loop
    vertex 776.0153879490872 1961.8707528363616 3.0
    vertex 776.0153879490872 1902.6018320043647 0.0
    vertex 776.0153879490872 1902.6018320043647 3.0
  endloop
endfacet
facet normal -1.0 0.0 0.0
  outer loop
    vertex 776.0153879490872 1902.6018320043647 0.0
    vertex 776.0153879490872 1961.8707528363616 3.0
    vertex 776.0153879490872 1961.8707528363616 0.0
  endloop
endfacet
facet normal -0.0 1.0 -0.0
  outer loop
    vertex 723.0325647810882 1902.6018320043647 3.0
    vertex 776.0153879490872 1902.6018320043647 0.0
    vertex 723.0325647810882 1902.6018320043647 0.0
  endloop
endfacet
facet normal -0.0 1.0 -0.0
  outer loop
    vertex 776.0153879490872 1902.6018320043647 0.0
    vertex 723.0325647810882 1902.6018320043647 3.0
    vertex 776.0153879490872 1902.6018320043647 3.0
  endloop
endfacet
facet normal 1.0 -0.0 -0.0
  outer loop
    vertex 723.0325647810882 1961.8707528363616 0.0
    vertex 723.0325647810882 1902.6018320043647 3.0
    vertex 723.0325647810882 1902.6018320043647 0.0
  endloop
endfacet
facet normal 1.0 -0.0 -0.0
  outer loop
    vertex 723.0325647810882 1902.6018320043647 3.0
    vertex 723.0325647810882 1961.8707528363616 0.0
    vertex 723.0325647810882 1961.8707528363616 3.0
  endloop
endfacet
facet normal 0.0 0.0 -1.0
  outer loop
    vertex 776.0153879490872 1961.8707528363616 0.0
    vertex 723.0325647810882 1902.6018320043647 0.0
    vertex 723.0325647810882 1961.8707528363616 0.0
  endloop
endfacet
facet normal 0.0 0.0 -1.0
  outer loop
    vertex 723.0325647810882 1902.6018320043647 0.0
    vertex 776.0153879490872 1961.8707528363616 0.0
    vertex 776.0153879490872 1902.6018320043647 0.0
  endloop
endfacet
facet normal 1.0 0.0 0.0
  outer loop
    vertex 779.8182818408164 1965.9564540183453 0.0
    vertex 779.8182818408164 1899.575262686509 18.0
    vertex 779.8182818408164 1899.575262686509 0.0
  endloop
endfacet
facet normal 1.0 0.0 0.0
  outer loop
    vertex 779.8182818408164 1899.575262686509 18.0
    vertex 779.8182818408164 1965.9564540183453 0.0
    vertex 779.8182818408164 1965.9564540183453 18.0
  endloop
endfacet
facet normal 0.0 -1.0 0.0
  outer loop
    vertex 779.8182818408164 1899.575262686509 0.0
    vertex 751.2270020765096 1899.575262686509 4.000000000000001
    vertex 720.4775198926573 1899.575262686509 0.0
  endloop
endfacet
facet normal 0.0 -1.0 0.0
  outer loop
    vertex 751.2270020765096 1899.575262686509 4.000000000000001
    vertex 779.8182818408164 1899.575262686509 0.0
    vertex 779.8182818408164 1899.575262686509 18.0
  endloop
endfacet
facet normal 0.0 -1.0 0.0
  outer loop
    vertex 751.2270020765096 1899.575262686509 4.000000000000001
    vertex 779.8182818408164 1899.575262686509 18.0
    vertex 751.2270020765096 1899.575262686509 18.0
  endloop
endfacet
facet normal 0.0 -1.0 0.0
  outer loop
    vertex 720.4775198926573 1899.575262686509 0.0
    vertex 745.2270020765096 1899.575262686509 4.000000000000001
    vertex 720.4775198926573 1899.575262686509 18.0
  endloop
endfacet
facet normal 0.0 -1.0 0.0
  outer loop
    vertex 745.2270020765096 1899.575262686509 4.000000000000001
    vertex 720.4775198926573 1899.575262686509 0.0
    vertex 751.2270020765096 1899.575262686509 4.000000000000001
  endloop
endfacet
facet normal 0.0 -1.0 0.0
  outer loop
    vertex 720.4775198926573 1899.575262686509 18.0
    vertex 745.2270020765096 1899.575262686509 4.000000000000001
    vertex 745.2270020765096 1899.575262686509 18.0
  endloop
endfacet
facet normal -1.2529545909012676e-15 -1.0 8.326764471916155e-15
  outer loop
    vertex 776.0153879490872 1961.8707528363616 3.0
    vertex 755.9187424138987 1961.8707528363616 5.000000000000002
    vertex 723.0325647810882 1961.8707528363616 3.0
  endloop
endfacet
facet normal -1.2529545909012676e-15 -1.0 8.326764471916155e-15
  outer loop
    vertex 755.9187424138987 1961.8707528363616 5.000000000000002
    vertex 776.0153879490872 1961.8707528363616 3.0
    vertex 776.0153879490872 1961.8707528363616 18.0
  endloop
endfacet
facet normal -1.2529545909012676e-15 -1.0 8.326764471916155e-15
  outer loop
    vertex 755.9187424138987 1961.8707528363616 5.000000000000002
    vertex 776.0153879490872 1961.8707528363616 18.0
    vertex 755.9187424138987 1961.8707528363616 18.0
  endloop
endfacet
facet normal -1.2529545909012676e-15 -1.0 8.326764471916155e-15
  outer loop
    vertex 750.9187424138987 1961.8707528363616 18.0
    vertex 746.4292742008387 1961.8707528363618 5.009559116924362
    vertex 750.9187424138987 1961.8707528363616 5.000000000000002
  endloop
endfacet
facet normal -1.2529545909012676e-15 -1.0 8.326764471916155e-15
  outer loop
    vertex 746.4292742008387 1961.8707528363618 5.009559116924362
    vertex 750.9187424138987 1961.8707528363616 18.0
    vertex 746.4292742008387 1961.8707528363618 18.00955911692436
  endloop
endfacet
facet normal -1.2529545909012676e-15 -1.0 8.326764471916155e-15
  outer loop
    vertex 723.0325647810882 1961.8707528363616 3.0
    vertex 741.4292742008387 1961.8707528363618 5.009559116924362
    vertex 723.0325647810882 1961.8707528363616 18.0
  endloop
endfacet
facet normal -1.2529545909012676e-15 -1.0 8.326764471916155e-15
  outer loop
    vertex 741.4292742008387 1961.8707528363618 5.009559116924362
    vertex 723.0325647810882 1961.8707528363616 3.0
    vertex 750.9187424138987 1961.8707528363616 5.000000000000002
  endloop
endfacet
facet normal -1.2529545909012676e-15 -1.0 8.326764471916155e-15
  outer loop
    vertex 750.9187424138987 1961.8707528363616 5.000000000000002
    vertex 723.0325647810882 1961.8707528363616 3.0
    vertex 755.9187424138987 1961.8707528363616 5.000000000000002
  endloop
endfacet
facet normal -1.2529545909012676e-15 -1.0 8.326764471916155e-15
  outer loop
    vertex 741.4292742008387 1961.8707528363618 5.009559116924362
    vertex 750.9187424138987 1961.8707528363616 5.000000000000002
    vertex 746.4292742008387 1961.8707528363618 5.009559116924362
  endloop
endfacet
facet normal -1.2529545909012676e-15 -1.0 8.326764471916155e-15
  outer loop
    vertex 723.0325647810882 1961.8707528363616 18.0
    vertex 741.4292742008387 1961.8707528363618 5.009559116924362
    vertex 741.4292742008387 1961.8707528363618 18.00955911692436
  endloop
endfacet
facet normal 1.0 -3.617691420740831e-16 1.339574409278429e-15
  outer loop
    vertex 723.0325647810882 1902.6018320043647 3.0
    vertex 723.0325647810881 1916.0414303114092 4.999999999999985
    vertex 723.0325647810882 1902.6018320043647 18.0
  endloop
endfacet
facet normal 1.0 -3.617691420740831e-16 1.339574409278429e-15
  outer loop
    vertex 723.0325647810881 1916.0414303114092 4.999999999999985
    vertex 723.0325647810882 1902.6018320043647 3.0
    vertex 723.0325647810882 1961.8707528363616 3.0
  endloop
endfacet
facet normal 1.0 -3.617691420740831e-16 1.339574409278429e-15
  outer loop
    vertex 723.0325647810881 1916.0414303114092 4.999999999999985
    vertex 723.0325647810882 1961.8707528363616 3.0
    vertex 723.0325647810881 1921.0414303114092 4.99999999999998
  endloop
endfacet
facet normal 1.0 -3.617691420740831e-16 1.339574409278429e-15
  outer loop
    vertex 723.0325647810881 1921.0414303114092 4.99999999999998
    vertex 723.0325647810882 1961.8707528363616 3.0
    vertex 723.0325647810881 1925.7686834429758 5.000000000000016
  endloop
endfacet
facet normal 1.0 -3.617691420740831e-16 1.339574409278429e-15
  outer loop
    vertex 723.0325647810881 1921.0414303114092 4.99999999999998
    vertex 723.0325647810881 1925.7686834429758 5.000000000000016
    vertex 723.0325647810881 1921.0414303114092 17.99999999999998
  endloop
endfacet
facet normal 1.0 -3.617691420740831e-16 1.339574409278429e-15
  outer loop
    vertex 723.0325647810881 1925.7686834429758 5.000000000000016
    vertex 723.0325647810882 1961.8707528363616 3.0
    vertex 723.0325647810881 1930.7686834429774 5.000000000000016
  endloop
endfacet
facet normal 1.0 -3.617691420740831e-16 1.339574409278429e-15
  outer loop
    vertex 723.0325647810881 1930.7686834429774 5.000000000000016
    vertex 723.0325647810882 1961.8707528363616 3.0
    vertex 723.0325647810881 1930.7686834429774 17.99999999999997
  endloop
endfacet
facet normal 1.0 -3.617691420740831e-16 1.339574409278429e-15
  outer loop
    vertex 723.0325647810881 1930.7686834429774 17.99999999999997
    vertex 723.0325647810882 1961.8707528363616 3.0
    vertex 723.0325647810882 1961.8707528363616 18.0
  endloop
endfacet
facet normal 1.0 -3.617691420740831e-16 1.339574409278429e-15
  outer loop
    vertex 723.0325647810881 1925.7686834429758 17.99999999999997
    vertex 723.0325647810881 1921.0414303114092 17.99999999999998
    vertex 723.0325647810881 1925.7686834429758 5.000000000000016
  endloop
endfacet
facet normal 1.0 -3.617691420740831e-16 1.339574409278429e-15
  outer loop
    vertex 723.0325647810881 1916.0414303114092 17.999999999999982
    vertex 723.0325647810882 1902.6018320043647 18.0
    vertex 723.0325647810881 1916.0414303114092 4.999999999999985
  endloop
endfacet
facet normal -1.65607774874679e-16 1.0 1.2024697358004329e-14
  outer loop
    vertex 723.0325647810882 1902.6018320043647 3.0
    vertex 745.2270020765096 1902.6018320043643 4.000000000000001
    vertex 776.0153879490872 1902.6018320043647 3.0
  endloop
endfacet
facet normal -1.65607774874679e-16 1.0 1.2024697358004329e-14
  outer loop
    vertex 745.2270020765096 1902.6018320043643 4.000000000000001
    vertex 723.0325647810882 1902.6018320043647 3.0
    vertex 723.0325647810882 1902.6018320043647 18.0
  endloop
endfacet
facet normal -1.65607774874679e-16 1.0 1.2024697358004329e-14
  outer loop
    vertex 745.2270020765096 1902.6018320043643 4.000000000000001
    vertex 723.0325647810882 1902.6018320043647 18.0
    vertex 745.2270020765096 1902.6018320043643 18.0
  endloop
endfacet
facet normal -1.65607774874679e-16 1.0 1.2024697358004329e-14
  outer loop
    vertex 776.0153879490872 1902.6018320043647 3.0
    vertex 751.2270020765096 1902.6018320043643 4.000000000000001
    vertex 776.0153879490872 1902.6018320043647 18.0
  endloop
endfacet
facet normal -1.65607774874679e-16 1.0 1.2024697358004329e-14
  outer loop
    vertex 751.2270020765096 1902.6018320043643 4.000000000000001
    vertex 776.0153879490872 1902.6018320043647 3.0
    vertex 745.2270020765096 1902.6018320043643 4.000000000000001
  endloop
endfacet
facet normal -1.65607774874679e-16 1.0 1.2024697358004329e-14
  outer loop
    vertex 776.0153879490872 1902.6018320043647 18.0
    vertex 751.2270020765096 1902.6018320043643 4.000000000000001
    vertex 751.2270020765096 1902.6018320043643 18.0
  endloop
endfacet
facet normal -1.0 0.0 0.0
  outer loop
    vertex 776.0153879490872 1961.8707528363616 18.0
    vertex 776.0153879490872 1902.6018320043647 3.0
    vertex 776.0153879490872 1902.6018320043647 18.0
  endloop
endfacet
facet normal -1.0 0.0 0.0
  outer loop
    vertex 776.0153879490872 1902.6018320043647 3.0
    vertex 776.0153879490872 1961.8707528363616 18.0
    vertex 776.0153879490872 1961.8707528363616 3.0
  endloop
endfacet
facet normal 1.0 -0.0 -0.0
  outer loop
    vertex 745.2270020765096 1902.6018320043643 4.000000000000001
    vertex 745.2270020765096 1899.575262686509 18.0
    vertex 745.2270020765096 1899.575262686509 4.000000000000001
  endloop
endfacet
facet normal 1.0 -0.0 -0.0
  outer loop
    vertex 745.2270020765096 1899.575262686509 18.0
    vertex 745.2270020765096 1902.6018320043643 4.000000000000001
    vertex 745.2270020765096 1902.6018320043643 18.0
  endloop
endfacet
facet normal -0.0 -0.0 1.0
  outer loop
    vertex 751.2270020765096 1899.575262686509 4.000000000000001
    vertex 745.2270020765096 1902.6018320043643 4.000000000000001
    vertex 745.2270020765096 1899.575262686509 4.000000000000001
  endloop
endfacet
facet normal -0.0 -0.0 1.0
  outer loop
    vertex 745.2270020765096 1902.6018320043643 4.000000000000001
    vertex 751.2270020765096 1899.575262686509 4.000000000000001
    vertex 751.2270020765096 1902.6018320043643 4.000000000000001
  endloop
endfacet
facet normal -1.0 0.0 0.0
  outer loop
    vertex 751.2270020765096 1902.6018320043643 18.0
    vertex 751.2270020765096 1899.575262686509 4.000000000000001
    vertex 751.2270020765096 1899.575262686509 18.0
  endloop
endfacet
facet normal -1.0 0.0 0.0
  outer loop
    vertex 751.2270020765096 1899.575262686509 4.000000000000001
    vertex 751.2270020765096 1902.6018320043643 18.0
    vertex 751.2270020765096 1902.6018320043643 4.000000000000001
  endloop
endfacet
facet normal -2.1339412209577976e-17 1.0818283803281823e-15 1.0
  outer loop
    vertex 720.4775198926573 1899.575262686509 18.0
    vertex 723.0325647810882 1902.6018320043647 18.0
    vertex 720.4775198926573 1916.0414303114092 17.999999999999982
  endloop
endfacet
facet normal -2.1339412209577976e-17 1.0818283803281823e-15 1.0
  outer loop
    vertex 723.0325647810882 1902.6018320043647 18.0
    vertex 720.4775198926573 1899.575262686509 18.0
    vertex 745.2270020765096 1899.575262686509 18.0
  endloop
endfacet
facet normal -2.1339412209577976e-17 1.0818283803281823e-15 1.0
  outer loop
    vertex 720.4775198926573 1916.0414303114092 17.999999999999982
    vertex 723.0325647810882 1902.6018320043647 18.0
    vertex 723.0325647810881 1916.0414303114092 17.999999999999982
  endloop
endfacet
facet normal -2.1339412209577976e-17 1.0818283803281823e-15 1.0
  outer loop
    vertex 723.0325647810882 1902.6018320043647 18.0
    vertex 745.2270020765096 1899.575262686509 18.0
    vertex 745.2270020765096 1902.6018320043643 18.0
  endloop
endfacet
facet normal -1.0 -9.602419647700621e-33 -7.507967739279209e-31
  outer loop
    vertex 720.4775198926573 1925.7686834429758 17.99999999999997
    vertex 720.4775198926573 1921.0414303114092 4.99999999999998
    vertex 720.4775198926573 1921.0414303114092 17.99999999999998
  endloop
endfacet
facet normal -1.0 -9.602419647700621e-33 -7.507967739279209e-31
  outer loop
    vertex 720.4775198926573 1965.9564540183453 18.0
    vertex 720.4775198926573 1930.7686834429774 5.000000000000016
    vertex 720.4775198926573 1930.7686834429774 17.99999999999997
  endloop
endfacet
facet normal -1.0 -9.602419647700621e-33 -7.507967739279209e-31
  outer loop
    vertex 720.4775198926573 1916.0414303114092 17.999999999999982
    vertex 720.4775198926573 1899.575262686509 0.0
    vertex 720.4775198926573 1899.575262686509 18.0
  endloop
endfacet
facet normal -1.0 -9.602419647700621e-33 -7.507967739279209e-31
  outer loop
    vertex 720.4775198926573 1899.575262686509 0.0
    vertex 720.4775198926573 1916.0414303114092 17.999999999999982
    vertex 720.4775198926573 1916.0414303114092 4.999999999999985
  endloop
endfacet
facet normal -1.0 -9.602419647700621e-33 -7.507967739279209e-31
  outer loop
    vertex 720.4775198926573 1899.575262686509 0.0
    vertex 720.4775198926573 1916.0414303114092 4.999999999999985
    vertex 720.4775198926573 1965.9564540183453 0.0
  endloop
endfacet
facet normal -1.0 -9.602419647700621e-33 -7.507967739279209e-31
  outer loop
    vertex 720.4775198926573 1965.9564540183453 0.0
    vertex 720.4775198926573 1916.0414303114092 4.999999999999985
    vertex 720.4775198926573 1921.0414303114092 4.99999999999998
  endloop
endfacet
facet normal -1.0 -9.602419647700621e-33 -7.507967739279209e-31
  outer loop
    vertex 720.4775198926573 1965.9564540183453 0.0
    vertex 720.4775198926573 1921.0414303114092 4.99999999999998
    vertex 720.4775198926573 1925.7686834429758 5.000000000000016
  endloop
endfacet
facet normal -1.0 -9.602419647700621e-33 -7.507967739279209e-31
  outer loop
    vertex 720.4775198926573 1925.7686834429758 5.000000000000016
    vertex 720.4775198926573 1921.0414303114092 4.99999999999998
    vertex 720.4775198926573 1925.7686834429758 17.99999999999997
  endloop
endfacet
facet normal -1.0 -9.602419647700621e-33 -7.507967739279209e-31
  outer loop
    vertex 720.4775198926573 1965.9564540183453 0.0
    vertex 720.4775198926573 1925.7686834429758 5.000000000000016
    vertex 720.4775198926573 1930.7686834429774 5.000000000000016
  endloop
endfacet
facet normal -1.0 -9.602419647700621e-33 -7.507967739279209e-31
  outer loop
    vertex 720.4775198926573 1965.9564540183453 0.0
    vertex 720.4775198926573 1930.7686834429774 5.000000000000016
    vertex 720.4775198926573 1965.9564540183453 18.0
  endloop
endfacet
facet normal 0.0 -1.0 0.0
  outer loop
    vertex 723.0325647810881 1930.7686834429774 17.99999999999997
    vertex 720.4775198926573 1930.7686834429774 5.000000000000016
    vertex 723.0325647810881 1930.7686834429774 5.000000000000016
  endloop
endfacet
facet normal 0.0 -1.0 0.0
  outer loop
    vertex 720.4775198926573 1930.7686834429774 5.000000000000016
    vertex 723.0325647810881 1930.7686834429774 17.99999999999997
    vertex 720.4775198926573 1930.7686834429774 17.99999999999997
  endloop
endfacet
facet normal -4.190823558986625e-31 -0.0 1.0
  outer loop
    vertex 723.0325647810881 1925.7686834429758 5.000000000000016
    vertex 720.4775198926573 1930.7686834429774 5.000000000000016
    vertex 720.4775198926573 1925.7686834429758 5.000000000000016
  endloop
endfacet
facet normal -4.190823558986625e-31 -0.0 1.0
  outer loop
    vertex 720.4775198926573 1930.7686834429774 5.000000000000016
    vertex 723.0325647810881 1925.7686834429758 5.000000000000016
    vertex 723.0325647810881 1930.7686834429774 5.000000000000016
  endloop
endfacet
facet normal -0.0 1.0 -0.0
  outer loop
    vertex 720.4775198926573 1925.7686834429758 17.99999999999997
    vertex 723.0325647810881 1925.7686834429758 5.000000000000016
    vertex 720.4775198926573 1925.7686834429758 5.000000000000016
  endloop
endfacet
facet normal -0.0 1.0 -0.0
  outer loop
    vertex 723.0325647810881 1925.7686834429758 5.000000000000016
    vertex 720.4775198926573 1925.7686834429758 17.99999999999997
    vertex 723.0325647810881 1925.7686834429758 17.99999999999997
  endloop
endfacet
facet normal -0.0004760554334862838 -4.557259549928563e-06 0.9999998866752215
  outer loop
    vertex 723.0325647810881 1930.7686834429774 17.99999999999997
    vertex 720.4775198926573 1965.9564540183453 18.0
    vertex 720.4775198926573 1930.7686834429774 17.99999999999997
  endloop
endfacet
facet normal -0.0004760554334862838 -4.557259549928563e-06 0.9999998866752215
  outer loop
    vertex 720.4775198926573 1965.9564540183453 18.0
    vertex 723.0325647810881 1930.7686834429774 17.99999999999997
    vertex 723.0325647810882 1961.8707528363616 18.0
  endloop
endfacet
facet normal -0.0004760554334862838 -4.557259549928563e-06 0.9999998866752215
  outer loop
    vertex 720.4775198926573 1965.9564540183453 18.0
    vertex 723.0325647810882 1961.8707528363616 18.0
    vertex 741.4292742008387 1965.9564540183453 18.00955911692436
  endloop
endfacet
facet normal -0.0004760554334862838 -4.557259549928563e-06 0.9999998866752215
  outer loop
    vertex 741.4292742008387 1965.9564540183453 18.00955911692436
    vertex 723.0325647810882 1961.8707528363616 18.0
    vertex 741.4292742008387 1961.8707528363618 18.00955911692436
  endloop
endfacet
facet normal 0.0 -1.0 0.0
  outer loop
    vertex 723.0325647810881 1921.0414303114092 17.99999999999998
    vertex 720.4775198926573 1921.0414303114092 4.99999999999998
    vertex 723.0325647810881 1921.0414303114092 4.99999999999998
  endloop
endfacet
facet normal 0.0 -1.0 0.0
  outer loop
    vertex 720.4775198926573 1921.0414303114092 4.99999999999998
    vertex 723.0325647810881 1921.0414303114092 17.99999999999998
    vertex 720.4775198926573 1921.0414303114092 17.99999999999998
  endloop
endfacet
facet normal 0.0 1.1279865930191713e-15 1.0
  outer loop
    vertex 723.0325647810881 1916.0414303114092 4.999999999999985
    vertex 720.4775198926573 1921.0414303114092 4.99999999999998
    vertex 720.4775198926573 1916.0414303114092 4.999999999999985
  endloop
endfacet
facet normal 0.0 1.1279865930191713e-15 1.0
  outer loop
    vertex 720.4775198926573 1921.0414303114092 4.99999999999998
    vertex 723.0325647810881 1916.0414303114092 4.999999999999985
    vertex 723.0325647810881 1921.0414303114092 4.99999999999998
  endloop
endfacet
facet normal -0.0 1.0 -0.0
  outer loop
    vertex 720.4775198926573 1916.0414303114092 17.999999999999982
    vertex 723.0325647810881 1916.0414303114092 4.999999999999985
    vertex 720.4775198926573 1916.0414303114092 4.999999999999985
  endloop
endfacet
facet normal -0.0 1.0 -0.0
  outer loop
    vertex 723.0325647810881 1916.0414303114092 4.999999999999985
    vertex 720.4775198926573 1916.0414303114092 17.999999999999982
    vertex 723.0325647810881 1916.0414303114092 17.999999999999982
  endloop
endfacet
facet normal -0.0 1.1930676881749278e-15 1.0
  outer loop
    vertex 723.0325647810881 1921.0414303114092 17.99999999999998
    vertex 720.4775198926573 1925.7686834429758 17.99999999999997
    vertex 720.4775198926573 1921.0414303114092 17.99999999999998
  endloop
endfacet
facet normal -0.0 1.1930676881749278e-15 1.0
  outer loop
    vertex 720.4775198926573 1925.7686834429758 17.99999999999997
    vertex 723.0325647810881 1921.0414303114092 17.99999999999998
    vertex 723.0325647810881 1925.7686834429758 17.99999999999997
  endloop
endfacet
facet normal -0.0 1.0 -0.0
  outer loop
    vertex 720.4775198926573 1965.9564540183453 0.0
    vertex 741.4292742008387 1965.9564540183453 5.009559116924362
    vertex 779.8182818408164 1965.9564540183453 0.0
  endloop
endfacet
facet normal -0.0 1.0 -0.0
  outer loop
    vertex 741.4292742008387 1965.9564540183453 5.009559116924362
    vertex 720.4775198926573 1965.9564540183453 0.0
    vertex 720.4775198926573 1965.9564540183453 18.0
  endloop
endfacet
facet normal -0.0 1.0 -0.0
  outer loop
    vertex 779.8182818408164 1965.9564540183453 0.0
    vertex 741.4292742008387 1965.9564540183453 5.009559116924362
    vertex 750.9187424138987 1965.9564540183453 5.000000000000002
  endloop
endfacet
facet normal -0.0 1.0 -0.0
  outer loop
    vertex 741.4292742008387 1965.9564540183453 5.009559116924362
    vertex 720.4775198926573 1965.9564540183453 18.0
    vertex 741.4292742008387 1965.9564540183453 18.00955911692436
  endloop
endfacet
facet normal -0.0 1.0 -0.0
  outer loop
    vertex 750.9187424138987 1965.9564540183453 5.000000000000002
    vertex 746.4292742008387 1965.9564540183453 5.009559116924362
    vertex 750.9187424138987 1965.9564540183453 18.0
  endloop
endfacet
facet normal -0.0 1.0 -0.0
  outer loop
    vertex 746.4292742008387 1965.9564540183453 5.009559116924362
    vertex 750.9187424138987 1965.9564540183453 5.000000000000002
    vertex 741.4292742008387 1965.9564540183453 5.009559116924362
  endloop
endfacet
facet normal -0.0 1.0 -0.0
  outer loop
    vertex 750.9187424138987 1965.9564540183453 18.0
    vertex 746.4292742008387 1965.9564540183453 5.009559116924362
    vertex 746.4292742008387 1965.9564540183453 18.00955911692436
  endloop
endfacet
facet normal -0.0 1.0 -0.0
  outer loop
    vertex 779.8182818408164 1965.9564540183453 0.0
    vertex 755.9187424138987 1965.9564540183453 5.000000000000002
    vertex 779.8182818408164 1965.9564540183453 18.0
  endloop
endfacet
facet normal -0.0 1.0 -0.0
  outer loop
    vertex 755.9187424138987 1965.9564540183453 5.000000000000002
    vertex 779.8182818408164 1965.9564540183453 0.0
    vertex 750.9187424138987 1965.9564540183453 5.000000000000002
  endloop
endfacet
facet normal -0.0 1.0 -0.0
  outer loop
    vertex 779.8182818408164 1965.9564540183453 18.0
    vertex 755.9187424138987 1965.9564540183453 5.000000000000002
    vertex 755.9187424138987 1965.9564540183453 18.0
  endloop
endfacet
facet normal -1.0 0.0 0.0
  outer loop
    vertex 755.9187424138987 1965.9564540183453 18.0
    vertex 755.9187424138987 1961.8707528363616 5.000000000000002
    vertex 755.9187424138987 1961.8707528363616 18.0
  endloop
endfacet
facet normal -1.0 0.0 0.0
  outer loop
    vertex 755.9187424138987 1961.8707528363616 5.000000000000002
    vertex 755.9187424138987 1965.9564540183453 18.0
    vertex 755.9187424138987 1965.9564540183453 5.000000000000002
  endloop
endfacet
facet normal 0.0 0.0 1.0
  outer loop
    vertex 755.9187424138987 1961.8707528363616 5.000000000000002
    vertex 750.9187424138987 1965.9564540183453 5.000000000000002
    vertex 750.9187424138987 1961.8707528363616 5.000000000000002
  endloop
endfacet
facet normal 0.0 0.0 1.0
  outer loop
    vertex 750.9187424138987 1965.9564540183453 5.000000000000002
    vertex 755.9187424138987 1961.8707528363616 5.000000000000002
    vertex 755.9187424138987 1965.9564540183453 5.000000000000002
  endloop
endfacet
facet normal 1.0 -0.0 -0.0
  outer loop
    vertex 750.9187424138987 1965.9564540183453 5.000000000000002
    vertex 750.9187424138987 1961.8707528363616 18.0
    vertex 750.9187424138987 1961.8707528363616 5.000000000000002
  endloop
endfacet
facet normal 1.0 -0.0 -0.0
  outer loop
    vertex 750.9187424138987 1961.8707528363616 18.0
    vertex 750.9187424138987 1965.9564540183453 5.000000000000002
    vertex 750.9187424138987 1965.9564540183453 18.0
  endloop
endfacet
facet normal -0.0 -0.0 1.0
  outer loop
    vertex 779.8182818408164 1899.575262686509 18.0
    vertex 751.2270020765096 1902.6018320043643 18.0
    vertex 751.2270020765096 1899.575262686509 18.0
  endloop
endfacet
facet normal -0.0 -0.0 1.0
  outer loop
    vertex 751.2270020765096 1902.6018320043643 18.0
    vertex 779.8182818408164 1899.575262686509 18.0
    vertex 776.0153879490872 1902.6018320043647 18.0
  endloop
endfacet
facet normal -0.0 -0.0 1.0
  outer loop
    vertex 776.0153879490872 1902.6018320043647 18.0
    vertex 779.8182818408164 1899.575262686509 18.0
    vertex 776.0153879490872 1961.8707528363616 18.0
  endloop
endfacet
facet normal -0.0 -0.0 1.0
  outer loop
    vertex 776.0153879490872 1961.8707528363616 18.0
    vertex 755.9187424138987 1965.9564540183453 18.0
    vertex 755.9187424138987 1961.8707528363616 18.0
  endloop
endfacet
facet normal -0.0 -0.0 1.0
  outer loop
    vertex 755.9187424138987 1965.9564540183453 18.0
    vertex 776.0153879490872 1961.8707528363616 18.0
    vertex 779.8182818408164 1965.9564540183453 18.0
  endloop
endfacet
facet normal -0.0 -0.0 1.0
  outer loop
    vertex 779.8182818408164 1965.9564540183453 18.0
    vertex 776.0153879490872 1961.8707528363616 18.0
    vertex 779.8182818408164 1899.575262686509 18.0
  endloop
endfacet
facet normal -1.0 0.0 0.0
  outer loop
    vertex 746.4292742008387 1965.9564540183453 18.00955911692436
    vertex 746.4292742008387 1961.8707528363618 5.009559116924362
    vertex 746.4292742008387 1961.8707528363618 18.00955911692436
  endloop
endfacet
facet normal -1.0 0.0 0.0
  outer loop
    vertex 746.4292742008387 1961.8707528363618 5.009559116924362
    vertex 746.4292742008387 1965.9564540183453 18.00955911692436
    vertex 746.4292742008387 1965.9564540183453 5.009559116924362
  endloop
endfacet
facet normal 0.0 0.0 1.0
  outer loop
    vertex 746.4292742008387 1961.8707528363618 5.009559116924362
    vertex 741.4292742008387 1965.9564540183453 5.009559116924362
    vertex 741.4292742008387 1961.8707528363618 5.009559116924362
  endloop
endfacet
facet normal 0.0 0.0 1.0
  outer loop
    vertex 741.4292742008387 1965.9564540183453 5.009559116924362
    vertex 746.4292742008387 1961.8707528363618 5.009559116924362
    vertex 746.4292742008387 1965.9564540183453 5.009559116924362
  endloop
endfacet
facet normal 1.0 -0.0 -0.0
  outer loop
    vertex 741.4292742008387 1965.9564540183453 5.009559116924362
    vertex 741.4292742008387 1961.8707528363618 18.00955911692436
    vertex 741.4292742008387 1961.8707528363618 5.009559116924362
  endloop
endfacet
facet normal 1.0 -0.0 -0.0
  outer loop
    vertex 741.4292742008387 1961.8707528363618 18.00955911692436
    vertex 741.4292742008387 1965.9564540183453 5.009559116924362
    vertex 741.4292742008387 1965.9564540183453 18.00955911692436
  endloop
endfacet
facet normal 0.0021292266259716926 3.673683715527796e-20 0.9999977331944184
  outer loop
    vertex 750.9187424138987 1961.8707528363616 18.0
    vertex 746.4292742008387 1965.9564540183453 18.00955911692436
    vertex 746.4292742008387 1961.8707528363618 18.00955911692436
  endloop
endfacet
facet normal 0.0021292266259716926 3.673683715527796e-20 0.9999977331944184
  outer loop
    vertex 746.4292742008387 1965.9564540183453 18.00955911692436
    vertex 750.9187424138987 1961.8707528363616 18.0
    vertex 750.9187424138987 1965.9564540183453 18.0
  endloop
endfacet
facet normal 0.0 0.0 -1.0
  outer loop
    vertex 776.252433281534 2035.428685531997 0.0
    vertex 723.2696101135349 1976.1597647 0.0
    vertex 723.2696101135349 2035.428685531997 0.0
  endloop
endfacet
facet normal 0.0 0.0 -1.0
  outer loop
    vertex 723.2696101135349 1976.1597647 0.0
    vertex 776.252433281534 2035.428685531997 0.0
    vertex 776.252433281534 1976.1597647 0.0
  endloop
endfacet
facet normal 0.0 0.0 1.0
  outer loop
    vertex 776.252433281534 1976.1597647 4.999999999999999
    vertex 723.2696101135349 2035.428685531997 4.999999999999999
    vertex 723.2696101135349 1976.1597647 4.999999999999999
  endloop
endfacet
facet normal 0.0 0.0 1.0
  outer loop
    vertex 723.2696101135349 2035.428685531997 4.999999999999999
    vertex 776.252433281534 1976.1597647 4.999999999999999
    vertex 776.252433281534 2035.428685531997 4.999999999999999
  endloop
endfacet
facet normal -0.0 1.0 0.0
  outer loop
    vertex 723.2696101135349 2035.428685531997 4.999999999999999
    vertex 776.252433281534 2035.428685531997 0.0
    vertex 723.2696101135349 2035.428685531997 0.0
  endloop
endfacet
facet normal -0.0 1.0 0.0
  outer loop
    vertex 776.252433281534 2035.428685531997 0.0
    vertex 723.2696101135349 2035.428685531997 4.999999999999999
    vertex 776.252433281534 2035.428685531997 4.999999999999999
  endloop
endfacet
facet normal 1.0 0.0 0.0
  outer loop
    vertex 776.252433281534 2035.428685531997 0.0
    vertex 776.252433281534 1976.1597647 4.999999999999999
    vertex 776.252433281534 1976.1597647 0.0
  endloop
endfacet
facet normal 1.0 0.0 0.0
  outer loop
    vertex 776.252433281534 1976.1597647 4.999999999999999
    vertex 776.252433281534 2035.428685531997 0.0
    vertex 776.252433281534 2035.428685531997 4.999999999999999
  endloop
endfacet
facet normal -0.0 -1.0 -0.0
  outer loop
    vertex 776.252433281534 1976.1597647 4.999999999999999
    vertex 723.2696101135349 1976.1597647 0.0
    vertex 776.252433281534 1976.1597647 0.0
  endloop
endfacet
facet normal -0.0 -1.0 -0.0
  outer loop
    vertex 723.2696101135349 1976.1597647 0.0
    vertex 776.252433281534 1976.1597647 4.999999999999999
    vertex 723.2696101135349 1976.1597647 4.999999999999999
  endloop
endfacet
facet normal -1.0 0.0 0.0
  outer loop
    vertex 723.2696101135349 2035.428685531997 4.999999999999999
    vertex 723.2696101135349 1976.1597647 0.0
    vertex 723.2696101135349 1976.1597647 4.999999999999999
  endloop
endfacet
facet normal -1.0 0.0 0.0
  outer loop
    vertex 723.2696101135349 1976.1597647 0.0
    vertex 723.2696101135349 2035.428685531997 4.999999999999999
    vertex 723.2696101135349 2035.428685531997 0.0
  endloop
endfacet
endsolid Untitled-58c61f5b
