solid Untitled-58c63536
facet normal 0.0 0.0 -1.0
  outer loop
    vertex 484.2832107238974 1829.8822133853457 0.0
    vertex 444.5299943920164 1793.417213385345 0.0
    vertex 444.5299943920164 1829.8822133853457 0.0
  endloop
endfacet
facet normal 0.0 0.0 -1.0
  outer loop
    vertex 444.5299943920164 1793.417213385345 0.0
    vertex 484.2832107238974 1829.8822133853457 0.0
    vertex 484.2832107238974 1793.417213385345 0.0
  endloop
endfacet
facet normal 0.0 0.0 -1.0
  outer loop
    vertex 442.2882708976863 1772.0054346159534 0.0
    vertex 444.61197449171294 1770.2014523222497 0.0
    vertex 442.2882708976863 1731.5361759264913 0.0
  endloop
endfacet
facet normal 0.0 0.0 -1.0
  outer loop
    vertex 444.61197449171294 1770.2014523222497 0.0
    vertex 442.2882708976863 1772.0054346159534 0.0
    vertex 486.406828294451 1772.0054346159534 0.0
  endloop
endfacet
facet normal 0.0 0.0 -1.0
  outer loop
    vertex 444.61197449171294 1770.2014523222497 0.0
    vertex 486.406828294451 1772.0054346159534 0.0
    vertex 484.365190823594 1770.2014523222497 0.0
  endloop
endfacet
facet normal 0.0 0.0 -1.0
  outer loop
    vertex 484.365190823594 1770.2014523222497 0.0
    vertex 486.406828294451 1772.0054346159534 0.0
    vertex 484.365190823594 1733.7364523222489 0.0
  endloop
endfacet
facet normal 0.0 0.0 -1.0
  outer loop
    vertex 442.2882708976863 1731.5361759264913 0.0
    vertex 444.61197449171294 1733.7364523222489 0.0
    vertex 486.406828294451 1731.5361759264913 0.0
  endloop
endfacet
facet normal 0.0 0.0 -1.0
  outer loop
    vertex 444.61197449171294 1733.7364523222489 0.0
    vertex 442.2882708976863 1731.5361759264913 0.0
    vertex 444.61197449171294 1770.2014523222497 0.0
  endloop
endfacet
facet normal 0.0 0.0 -1.0
  outer loop
    vertex 486.406828294451 1731.5361759264913 0.0
    vertex 444.61197449171294 1733.7364523222489 0.0
    vertex 484.365190823594 1733.7364523222489 0.0
  endloop
endfacet
facet normal 0.0 0.0 -1.0
  outer loop
    vertex 486.406828294451 1731.5361759264913 0.0
    vertex 484.365190823594 1733.7364523222489 0.0
    vertex 486.406828294451 1772.0054346159534 0.0
  endloop
endfacet
facet normal 0.0 0.0 -1.0
  outer loop
    vertex 484.365190823594 1770.2014523222497 1.9999999999999998
    vertex 444.61197449171294 1733.7364523222489 1.9999999999999998
    vertex 444.61197449171294 1770.2014523222497 1.9999999999999998
  endloop
endfacet
facet normal 0.0 0.0 -1.0
  outer loop
    vertex 444.61197449171294 1733.7364523222489 1.9999999999999998
    vertex 484.365190823594 1770.2014523222497 1.9999999999999998
    vertex 484.365190823594 1733.7364523222489 1.9999999999999998
  endloop
endfacet
facet normal -1.0 0.0 0.0
  outer loop
    vertex 484.365190823594 1770.2014523222497 1.9999999999999998
    vertex 484.365190823594 1733.7364523222489 0.0
    vertex 484.365190823594 1733.7364523222489 1.9999999999999998
  endloop
endfacet
facet normal -1.0 0.0 0.0
  outer loop
    vertex 484.365190823594 1733.7364523222489 0.0
    vertex 484.365190823594 1770.2014523222497 1.9999999999999998
    vertex 484.365190823594 1770.2014523222497 0.0
  endloop
endfacet
facet normal -0.0 1.0 -0.0
  outer loop
    vertex 444.61197449171294 1733.7364523222489 1.9999999999999998
    vertex 484.365190823594 1733.7364523222489 0.0
    vertex 444.61197449171294 1733.7364523222489 0.0
  endloop
endfacet
facet normal -0.0 1.0 -0.0
  outer loop
    vertex 484.365190823594 1733.7364523222489 0.0
    vertex 444.61197449171294 1733.7364523222489 1.9999999999999998
    vertex 484.365190823594 1733.7364523222489 1.9999999999999998
  endloop
endfacet
facet normal 1.0 -0.0 -0.0
  outer loop
    vertex 444.61197449171294 1770.2014523222497 0.0
    vertex 444.61197449171294 1733.7364523222489 1.9999999999999998
    vertex 444.61197449171294 1733.7364523222489 0.0
  endloop
endfacet
facet normal 1.0 -0.0 -0.0
  outer loop
    vertex 444.61197449171294 1733.7364523222489 1.9999999999999998
    vertex 444.61197449171294 1770.2014523222497 0.0
    vertex 444.61197449171294 1770.2014523222497 1.9999999999999998
  endloop
endfacet
facet normal 0.0 -1.0 0.0
  outer loop
    vertex 484.365190823594 1770.2014523222497 1.9999999999999998
    vertex 444.61197449171294 1770.2014523222497 0.0
    vertex 484.365190823594 1770.2014523222497 0.0
  endloop
endfacet
facet normal 0.0 -1.0 0.0
  outer loop
    vertex 444.61197449171294 1770.2014523222497 0.0
    vertex 484.365190823594 1770.2014523222497 1.9999999999999998
    vertex 444.61197449171294 1770.2014523222497 1.9999999999999998
  endloop
endfacet
facet normal 0.0 0.0 -1.0
  outer loop
    vertex 484.365190823594 1770.2014523222497 0.0
    vertex 444.61197449171294 1733.7364523222489 0.0
    vertex 444.61197449171294 1770.2014523222497 0.0
  endloop
endfacet
facet normal 0.0 0.0 -1.0
  outer loop
    vertex 444.61197449171294 1733.7364523222489 0.0
    vertex 484.365190823594 1770.2014523222497 0.0
    vertex 484.365190823594 1733.7364523222489 0.0
  endloop
endfacet
facet normal 0.0 0.0 1.0
  outer loop
    vertex 442.2882708976863 1731.5361759264913 26.999999999999996
    vertex 444.61197449171294 1733.7364523222489 26.999999999999996
    vertex 442.2882708976863 1772.0054346159534 26.999999999999996
  endloop
endfacet
facet normal 0.0 0.0 1.0
  outer loop
    vertex 444.61197449171294 1733.7364523222489 26.999999999999996
    vertex 442.2882708976863 1731.5361759264913 26.999999999999996
    vertex 486.406828294451 1731.5361759264913 26.999999999999996
  endloop
endfacet
facet normal 0.0 0.0 1.0
  outer loop
    vertex 444.61197449171294 1733.7364523222489 26.999999999999996
    vertex 486.406828294451 1731.5361759264913 26.999999999999996
    vertex 484.365190823594 1733.7364523222489 26.999999999999996
  endloop
endfacet
facet normal 0.0 0.0 1.0
  outer loop
    vertex 484.365190823594 1733.7364523222489 26.999999999999996
    vertex 486.406828294451 1731.5361759264913 26.999999999999996
    vertex 484.365190823594 1770.2014523222497 26.999999999999996
  endloop
endfacet
facet normal 0.0 0.0 1.0
  outer loop
    vertex 442.2882708976863 1772.0054346159534 26.999999999999996
    vertex 444.61197449171294 1770.2014523222497 26.999999999999996
    vertex 486.406828294451 1772.0054346159534 26.999999999999996
  endloop
endfacet
facet normal 0.0 0.0 1.0
  outer loop
    vertex 444.61197449171294 1770.2014523222497 26.999999999999996
    vertex 442.2882708976863 1772.0054346159534 26.999999999999996
    vertex 444.61197449171294 1733.7364523222489 26.999999999999996
  endloop
endfacet
facet normal 0.0 0.0 1.0
  outer loop
    vertex 486.406828294451 1772.0054346159534 26.999999999999996
    vertex 444.61197449171294 1770.2014523222497 26.999999999999996
    vertex 484.365190823594 1770.2014523222497 26.999999999999996
  endloop
endfacet
facet normal 0.0 0.0 1.0
  outer loop
    vertex 486.406828294451 1772.0054346159534 26.999999999999996
    vertex 484.365190823594 1770.2014523222497 26.999999999999996
    vertex 486.406828294451 1731.5361759264913 26.999999999999996
  endloop
endfacet
facet normal 1.0 0.0 0.0
  outer loop
    vertex 486.406828294451 1772.0054346159534 0.0
    vertex 486.406828294451 1731.5361759264913 26.999999999999996
    vertex 486.406828294451 1731.5361759264913 0.0
  endloop
endfacet
facet normal 1.0 0.0 0.0
  outer loop
    vertex 486.406828294451 1731.5361759264913 26.999999999999996
    vertex 486.406828294451 1772.0054346159534 0.0
    vertex 486.406828294451 1772.0054346159534 26.999999999999996
  endloop
endfacet
facet normal -0.0 -1.0 -0.0
  outer loop
    vertex 486.406828294451 1731.5361759264913 0.0
    vertex 464.27264480275716 1731.5361759264913 7.693354263410878
    vertex 442.2882708976863 1731.5361759264913 0.0
  endloop
endfacet
facet normal -0.0 -1.0 -0.0
  outer loop
    vertex 464.27264480275716 1731.5361759264913 7.693354263410878
    vertex 486.406828294451 1731.5361759264913 0.0
    vertex 465.4785495772446 1731.5361759264913 8.19285637593403
  endloop
endfacet
facet normal -0.0 -1.0 -0.0
  outer loop
    vertex 465.4785495772446 1731.5361759264913 8.19285637593403
    vertex 486.406828294451 1731.5361759264913 0.0
    vertex 466.5140834831774 1731.5361759264913 8.987449488923492
  endloop
endfacet
facet normal -0.0 -1.0 -0.0
  outer loop
    vertex 466.5140834831774 1731.5361759264913 8.987449488923492
    vertex 486.406828294451 1731.5361759264913 0.0
    vertex 486.406828294451 1731.5361759264913 26.999999999999996
  endloop
endfacet
facet normal -0.0 -1.0 -0.0
  outer loop
    vertex 442.2882708976863 1731.5361759264913 0.0
    vertex 464.27264480275716 1731.5361759264913 7.693354263410878
    vertex 462.97854957724456 1731.5361759264913 7.522983394856218
  endloop
endfacet
facet normal -0.0 -1.0 -0.0
  outer loop
    vertex 466.5140834831774 1731.5361759264913 8.987449488923492
    vertex 486.406828294451 1731.5361759264913 26.999999999999996
    vertex 467.3086765961668 1731.5361759264913 10.022983394856235
  endloop
endfacet
facet normal -0.0 -1.0 -0.0
  outer loop
    vertex 467.3086765961668 1731.5361759264913 10.022983394856235
    vertex 486.406828294451 1731.5361759264913 26.999999999999996
    vertex 467.80817870869 1731.5361759264913 11.22888816934364
  endloop
endfacet
facet normal -0.0 -1.0 -0.0
  outer loop
    vertex 467.80817870869 1731.5361759264913 11.22888816934364
    vertex 486.406828294451 1731.5361759264913 26.999999999999996
    vertex 467.9785495772446 1731.5361759264913 12.522983394856254
  endloop
endfacet
facet normal -0.0 -1.0 -0.0
  outer loop
    vertex 467.9785495772446 1731.5361759264913 12.522983394856254
    vertex 486.406828294451 1731.5361759264913 26.999999999999996
    vertex 467.80817870869 1731.5361759264913 13.817078620368871
  endloop
endfacet
facet normal -0.0 -1.0 -0.0
  outer loop
    vertex 467.80817870869 1731.5361759264913 13.817078620368871
    vertex 486.406828294451 1731.5361759264913 26.999999999999996
    vertex 467.3086765961668 1731.5361759264913 15.022983394856274
  endloop
endfacet
facet normal -0.0 -1.0 -0.0
  outer loop
    vertex 467.3086765961668 1731.5361759264913 15.022983394856274
    vertex 486.406828294451 1731.5361759264913 26.999999999999996
    vertex 466.5140834831774 1731.5361759264913 16.058517300789017
  endloop
endfacet
facet normal -0.0 -1.0 -0.0
  outer loop
    vertex 466.5140834831774 1731.5361759264913 16.058517300789017
    vertex 486.406828294451 1731.5361759264913 26.999999999999996
    vertex 465.47854957724456 1731.5361759264913 16.853110413778477
  endloop
endfacet
facet normal -0.0 -1.0 -0.0
  outer loop
    vertex 465.47854957724456 1731.5361759264913 16.853110413778477
    vertex 486.406828294451 1731.5361759264913 26.999999999999996
    vertex 464.27264480275716 1731.5361759264913 17.352612526301634
  endloop
endfacet
facet normal -0.0 -1.0 -0.0
  outer loop
    vertex 464.27264480275716 1731.5361759264913 17.352612526301634
    vertex 486.406828294451 1731.5361759264913 26.999999999999996
    vertex 462.97854957724456 1731.5361759264913 17.52298339485629
  endloop
endfacet
facet normal -0.0 -1.0 -0.0
  outer loop
    vertex 442.2882708976863 1731.5361759264913 0.0
    vertex 459.4430156713118 1731.5361759264913 8.98744948892349
    vertex 442.2882708976863 1731.5361759264913 26.999999999999996
  endloop
endfacet
facet normal -0.0 -1.0 -0.0
  outer loop
    vertex 459.4430156713118 1731.5361759264913 8.98744948892349
    vertex 442.2882708976863 1731.5361759264913 0.0
    vertex 460.4785495772446 1731.5361759264913 8.192856375934028
  endloop
endfacet
facet normal -0.0 -1.0 -0.0
  outer loop
    vertex 460.4785495772446 1731.5361759264913 8.192856375934028
    vertex 442.2882708976863 1731.5361759264913 0.0
    vertex 461.684454351732 1731.5361759264913 7.693354263410878
  endloop
endfacet
facet normal -0.0 -1.0 -0.0
  outer loop
    vertex 461.684454351732 1731.5361759264913 7.693354263410878
    vertex 442.2882708976863 1731.5361759264913 0.0
    vertex 462.97854957724456 1731.5361759264913 7.522983394856218
  endloop
endfacet
facet normal -0.0 -1.0 -0.0
  outer loop
    vertex 442.2882708976863 1731.5361759264913 26.999999999999996
    vertex 459.4430156713118 1731.5361759264913 8.98744948892349
    vertex 458.64842255832235 1731.5361759264913 10.022983394856235
  endloop
endfacet
facet normal -0.0 -1.0 -0.0
  outer loop
    vertex 442.2882708976863 1731.5361759264913 26.999999999999996
    vertex 458.64842255832235 1731.5361759264913 10.022983394856235
    vertex 458.1489204457992 1731.5361759264913 11.228888169343639
  endloop
endfacet
facet normal -0.0 -1.0 -0.0
  outer loop
    vertex 442.2882708976863 1731.5361759264913 26.999999999999996
    vertex 458.1489204457992 1731.5361759264913 11.228888169343639
    vertex 457.97854957724456 1731.5361759264913 12.522983394856254
  endloop
endfacet
facet normal -0.0 -1.0 -0.0
  outer loop
    vertex 442.2882708976863 1731.5361759264913 26.999999999999996
    vertex 457.97854957724456 1731.5361759264913 12.522983394856254
    vertex 458.1489204457992 1731.5361759264913 13.817078620368862
  endloop
endfacet
facet normal -0.0 -1.0 -0.0
  outer loop
    vertex 442.2882708976863 1731.5361759264913 26.999999999999996
    vertex 458.1489204457992 1731.5361759264913 13.817078620368862
    vertex 458.64842255832235 1731.5361759264913 15.02298339485627
  endloop
endfacet
facet normal -0.0 -1.0 -0.0
  outer loop
    vertex 442.2882708976863 1731.5361759264913 26.999999999999996
    vertex 458.64842255832235 1731.5361759264913 15.02298339485627
    vertex 459.4430156713118 1731.5361759264913 16.058517300789017
  endloop
endfacet
facet normal -0.0 -1.0 -0.0
  outer loop
    vertex 442.2882708976863 1731.5361759264913 26.999999999999996
    vertex 459.4430156713118 1731.5361759264913 16.058517300789017
    vertex 460.4785495772445 1731.5361759264913 16.853110413778477
  endloop
endfacet
facet normal -0.0 -1.0 -0.0
  outer loop
    vertex 442.2882708976863 1731.5361759264913 26.999999999999996
    vertex 460.4785495772445 1731.5361759264913 16.853110413778477
    vertex 461.684454351732 1731.5361759264913 17.35261252630163
  endloop
endfacet
facet normal -0.0 -1.0 -0.0
  outer loop
    vertex 442.2882708976863 1731.5361759264913 26.999999999999996
    vertex 461.684454351732 1731.5361759264913 17.35261252630163
    vertex 462.97854957724456 1731.5361759264913 17.52298339485629
  endloop
endfacet
facet normal -0.0 -1.0 -0.0
  outer loop
    vertex 442.2882708976863 1731.5361759264913 26.999999999999996
    vertex 462.97854957724456 1731.5361759264913 17.52298339485629
    vertex 486.406828294451 1731.5361759264913 26.999999999999996
  endloop
endfacet
facet normal -1.0 0.0 0.0
  outer loop
    vertex 442.2882708976863 1731.5361759264913 26.999999999999996
    vertex 442.2882708976863 1748.2596517614122 15.545921746055143
    vertex 442.2882708976863 1731.5361759264913 0.0
  endloop
endfacet
facet normal -1.0 0.0 0.0
  outer loop
    vertex 442.2882708976863 1748.2596517614122 15.545921746055143
    vertex 442.2882708976863 1731.5361759264913 26.999999999999996
    vertex 442.2882708976863 1749.3526122123578 16.25946651564939
  endloop
endfacet
facet normal -1.0 0.0 0.0
  outer loop
    vertex 442.2882708976863 1749.3526122123578 16.25946651564939
    vertex 442.2882708976863 1731.5361759264913 26.999999999999996
    vertex 442.2882708976863 1772.0054346159534 26.999999999999996
  endloop
endfacet
facet normal -1.0 0.0 0.0
  outer loop
    vertex 442.2882708976863 1731.5361759264913 0.0
    vertex 442.2882708976863 1748.2596517614122 15.545921746055143
    vertex 442.2882708976863 1747.3886120106356 14.573811444641999
  endloop
endfacet
facet normal -1.0 0.0 0.0
  outer loop
    vertex 442.2882708976863 1731.5361759264913 0.0
    vertex 442.2882708976863 1747.3886120106356 14.573811444641999
    vertex 442.2882708976863 1746.798852879582 13.40938332196304
  endloop
endfacet
facet normal -1.0 0.0 0.0
  outer loop
    vertex 442.2882708976863 1731.5361759264913 0.0
    vertex 442.2882708976863 1746.798852879582 13.40938332196304
    vertex 442.2882708976863 1746.5305654784102 12.131991230270378
  endloop
endfacet
facet normal -1.0 0.0 0.0
  outer loop
    vertex 442.2882708976863 1749.3526122123578 16.25946651564939
    vertex 442.2882708976863 1772.0054346159534 26.999999999999996
    vertex 442.2882708976863 1750.5930099149432 16.665818856565384
  endloop
endfacet
facet normal -1.0 0.0 0.0
  outer loop
    vertex 442.2882708976863 1750.5930099149432 16.665818856565384
    vertex 442.2882708976863 1772.0054346159534 26.999999999999996
    vertex 442.2882708976863 1751.896313815591 16.73728652829869
  endloop
endfacet
facet normal -1.0 0.0 0.0
  outer loop
    vertex 442.2882708976863 1751.896313815591 16.73728652829869
    vertex 442.2882708976863 1772.0054346159534 26.999999999999996
    vertex 442.2882708976863 1753.1737059072836 16.4689991271266
  endloop
endfacet
facet normal -1.0 0.0 0.0
  outer loop
    vertex 442.2882708976863 1753.1737059072836 16.4689991271266
    vertex 442.2882708976863 1772.0054346159534 26.999999999999996
    vertex 442.2882708976863 1754.3381340299627 15.879239996073098
  endloop
endfacet
facet normal -1.0 0.0 0.0
  outer loop
    vertex 442.2882708976863 1754.3381340299627 15.879239996073098
    vertex 442.2882708976863 1772.0054346159534 26.999999999999996
    vertex 442.2882708976863 1755.3102443313758 15.008200245296429
  endloop
endfacet
facet normal -1.0 0.0 0.0
  outer loop
    vertex 442.2882708976863 1755.3102443313758 15.008200245296429
    vertex 442.2882708976863 1772.0054346159534 26.999999999999996
    vertex 442.2882708976863 1756.02378910097 13.915239794350779
  endloop
endfacet
facet normal -1.0 0.0 0.0
  outer loop
    vertex 442.2882708976863 1756.02378910097 13.915239794350779
    vertex 442.2882708976863 1772.0054346159534 26.999999999999996
    vertex 442.2882708976863 1756.4301414418858 12.674842091765546
  endloop
endfacet
facet normal -1.0 0.0 0.0
  outer loop
    vertex 442.2882708976863 1756.4301414418858 12.674842091765546
    vertex 442.2882708976863 1772.0054346159534 26.999999999999996
    vertex 442.2882708976863 1756.501609113619 11.371538191117795
  endloop
endfacet
facet normal -1.0 0.0 0.0
  outer loop
    vertex 442.2882708976863 1731.5361759264913 0.0
    vertex 442.2882708976863 1749.8584686847455 7.03453029426157
    vertex 442.2882708976863 1772.0054346159534 0.0
  endloop
endfacet
facet normal -1.0 0.0 0.0
  outer loop
    vertex 442.2882708976863 1749.8584686847455 7.03453029426157
    vertex 442.2882708976863 1731.5361759264913 0.0
    vertex 442.2882708976863 1748.6940405620664 7.624289425315073
  endloop
endfacet
facet normal -1.0 0.0 0.0
  outer loop
    vertex 442.2882708976863 1748.6940405620664 7.624289425315073
    vertex 442.2882708976863 1731.5361759264913 0.0
    vertex 442.2882708976863 1747.7219302606534 8.495329176091744
  endloop
endfacet
facet normal -1.0 0.0 0.0
  outer loop
    vertex 442.2882708976863 1747.7219302606534 8.495329176091744
    vertex 442.2882708976863 1731.5361759264913 0.0
    vertex 442.2882708976863 1747.0083854910592 9.588289627037392
  endloop
endfacet
facet normal -1.0 0.0 0.0
  outer loop
    vertex 442.2882708976863 1747.0083854910592 9.588289627037392
    vertex 442.2882708976863 1731.5361759264913 0.0
    vertex 442.2882708976863 1746.6020331501431 10.828687329622623
  endloop
endfacet
facet normal -1.0 0.0 0.0
  outer loop
    vertex 442.2882708976863 1746.6020331501431 10.828687329622623
    vertex 442.2882708976863 1731.5361759264913 0.0
    vertex 442.2882708976863 1746.5305654784102 12.131991230270378
  endloop
endfacet
facet normal -1.0 0.0 0.0
  outer loop
    vertex 442.2882708976863 1772.0054346159534 0.0
    vertex 442.2882708976863 1749.8584686847455 7.03453029426157
    vertex 442.2882708976863 1751.1358607764382 6.76624289308948
  endloop
endfacet
facet normal -1.0 0.0 0.0
  outer loop
    vertex 442.2882708976863 1772.0054346159534 0.0
    vertex 442.2882708976863 1751.1358607764382 6.76624289308948
    vertex 442.2882708976863 1752.439164677086 6.837710564822789
  endloop
endfacet
facet normal -1.0 0.0 0.0
  outer loop
    vertex 442.2882708976863 1772.0054346159534 0.0
    vertex 442.2882708976863 1752.439164677086 6.837710564822789
    vertex 442.2882708976863 1753.6795623796713 7.244062905738781
  endloop
endfacet
facet normal -1.0 0.0 0.0
  outer loop
    vertex 442.2882708976863 1772.0054346159534 0.0
    vertex 442.2882708976863 1753.6795623796713 7.244062905738781
    vertex 442.2882708976863 1754.772522830617 7.957607675333031
  endloop
endfacet
facet normal -1.0 0.0 0.0
  outer loop
    vertex 442.2882708976863 1772.0054346159534 0.0
    vertex 442.2882708976863 1754.772522830617 7.957607675333031
    vertex 442.2882708976863 1755.6435625813936 8.929717976746174
  endloop
endfacet
facet normal -1.0 0.0 0.0
  outer loop
    vertex 442.2882708976863 1772.0054346159534 0.0
    vertex 442.2882708976863 1755.6435625813936 8.929717976746174
    vertex 442.2882708976863 1756.2333217124472 10.09414609942513
  endloop
endfacet
facet normal -1.0 0.0 0.0
  outer loop
    vertex 442.2882708976863 1772.0054346159534 0.0
    vertex 442.2882708976863 1756.2333217124472 10.09414609942513
    vertex 442.2882708976863 1756.501609113619 11.371538191117795
  endloop
endfacet
facet normal -1.0 0.0 0.0
  outer loop
    vertex 442.2882708976863 1772.0054346159534 0.0
    vertex 442.2882708976863 1756.501609113619 11.371538191117795
    vertex 442.2882708976863 1772.0054346159534 26.999999999999996
  endloop
endfacet
facet normal -0.0 1.0 0.0
  outer loop
    vertex 442.2882708976863 1772.0054346159534 26.999999999999996
    vertex 486.406828294451 1772.0054346159534 0.0
    vertex 442.2882708976863 1772.0054346159534 0.0
  endloop
endfacet
facet normal -0.0 1.0 0.0
  outer loop
    vertex 486.406828294451 1772.0054346159534 0.0
    vertex 442.2882708976863 1772.0054346159534 26.999999999999996
    vertex 486.406828294451 1772.0054346159534 26.999999999999996
  endloop
endfacet
facet normal 0.0 -1.0 0.0
  outer loop
    vertex 484.365190823594 1770.2014523222497 26.999999999999996
    vertex 444.61197449171294 1770.2014523222497 1.9999999999999998
    vertex 484.365190823594 1770.2014523222497 1.9999999999999998
  endloop
endfacet
facet normal 0.0 -1.0 0.0
  outer loop
    vertex 444.61197449171294 1770.2014523222497 1.9999999999999998
    vertex 484.365190823594 1770.2014523222497 26.999999999999996
    vertex 444.61197449171294 1770.2014523222497 26.999999999999996
  endloop
endfacet
facet normal -0.0 1.0 -0.0
  outer loop
    vertex 444.61197449171294 1733.7364523222489 1.9999999999999998
    vertex 461.684454351732 1733.7364523222495 7.693354263410878
    vertex 484.365190823594 1733.7364523222489 1.9999999999999998
  endloop
endfacet
facet normal -0.0 1.0 -0.0
  outer loop
    vertex 461.684454351732 1733.7364523222495 7.693354263410878
    vertex 444.61197449171294 1733.7364523222489 1.9999999999999998
    vertex 460.4785495772446 1733.7364523222495 8.192856375934028
  endloop
endfacet
facet normal -0.0 1.0 -0.0
  outer loop
    vertex 460.4785495772446 1733.7364523222495 8.192856375934028
    vertex 444.61197449171294 1733.7364523222489 1.9999999999999998
    vertex 459.4430156713118 1733.7364523222495 8.98744948892349
  endloop
endfacet
facet normal -0.0 1.0 -0.0
  outer loop
    vertex 459.4430156713118 1733.7364523222495 8.98744948892349
    vertex 444.61197449171294 1733.7364523222489 1.9999999999999998
    vertex 444.61197449171294 1733.7364523222489 26.999999999999996
  endloop
endfacet
facet normal -0.0 1.0 -0.0
  outer loop
    vertex 484.365190823594 1733.7364523222489 1.9999999999999998
    vertex 461.684454351732 1733.7364523222495 7.693354263410878
    vertex 462.97854957724456 1733.7364523222495 7.522983394856218
  endloop
endfacet
facet normal -0.0 1.0 -0.0
  outer loop
    vertex 459.4430156713118 1733.7364523222495 8.98744948892349
    vertex 444.61197449171294 1733.7364523222489 26.999999999999996
    vertex 458.64842255832235 1733.7364523222495 10.022983394856235
  endloop
endfacet
facet normal -0.0 1.0 -0.0
  outer loop
    vertex 458.64842255832235 1733.7364523222495 10.022983394856235
    vertex 444.61197449171294 1733.7364523222489 26.999999999999996
    vertex 458.1489204457992 1733.7364523222495 11.228888169343639
  endloop
endfacet
facet normal -0.0 1.0 -0.0
  outer loop
    vertex 458.1489204457992 1733.7364523222495 11.228888169343639
    vertex 444.61197449171294 1733.7364523222489 26.999999999999996
    vertex 457.97854957724456 1733.7364523222495 12.522983394856254
  endloop
endfacet
facet normal -0.0 1.0 -0.0
  outer loop
    vertex 457.97854957724456 1733.7364523222495 12.522983394856254
    vertex 444.61197449171294 1733.7364523222489 26.999999999999996
    vertex 458.1489204457992 1733.7364523222495 13.817078620368862
  endloop
endfacet
facet normal -0.0 1.0 -0.0
  outer loop
    vertex 458.1489204457992 1733.7364523222495 13.817078620368862
    vertex 444.61197449171294 1733.7364523222489 26.999999999999996
    vertex 458.64842255832235 1733.7364523222495 15.02298339485627
  endloop
endfacet
facet normal -0.0 1.0 -0.0
  outer loop
    vertex 458.64842255832235 1733.7364523222495 15.02298339485627
    vertex 444.61197449171294 1733.7364523222489 26.999999999999996
    vertex 459.4430156713118 1733.7364523222495 16.058517300789017
  endloop
endfacet
facet normal -0.0 1.0 -0.0
  outer loop
    vertex 459.4430156713118 1733.7364523222495 16.058517300789017
    vertex 444.61197449171294 1733.7364523222489 26.999999999999996
    vertex 460.4785495772445 1733.7364523222495 16.853110413778477
  endloop
endfacet
facet normal -0.0 1.0 -0.0
  outer loop
    vertex 460.4785495772445 1733.7364523222495 16.853110413778477
    vertex 444.61197449171294 1733.7364523222489 26.999999999999996
    vertex 461.684454351732 1733.7364523222495 17.35261252630163
  endloop
endfacet
facet normal -0.0 1.0 -0.0
  outer loop
    vertex 461.684454351732 1733.7364523222495 17.35261252630163
    vertex 444.61197449171294 1733.7364523222489 26.999999999999996
    vertex 462.97854957724456 1733.7364523222495 17.52298339485629
  endloop
endfacet
facet normal -0.0 1.0 -0.0
  outer loop
    vertex 484.365190823594 1733.7364523222489 1.9999999999999998
    vertex 466.5140834831774 1733.7364523222495 8.987449488923492
    vertex 484.365190823594 1733.7364523222489 26.999999999999996
  endloop
endfacet
facet normal -0.0 1.0 -0.0
  outer loop
    vertex 466.5140834831774 1733.7364523222495 8.987449488923492
    vertex 484.365190823594 1733.7364523222489 1.9999999999999998
    vertex 465.4785495772446 1733.7364523222495 8.19285637593403
  endloop
endfacet
facet normal -0.0 1.0 -0.0
  outer loop
    vertex 465.4785495772446 1733.7364523222495 8.19285637593403
    vertex 484.365190823594 1733.7364523222489 1.9999999999999998
    vertex 464.27264480275716 1733.7364523222495 7.693354263410878
  endloop
endfacet
facet normal -0.0 1.0 -0.0
  outer loop
    vertex 464.27264480275716 1733.7364523222495 7.693354263410878
    vertex 484.365190823594 1733.7364523222489 1.9999999999999998
    vertex 462.97854957724456 1733.7364523222495 7.522983394856218
  endloop
endfacet
facet normal -0.0 1.0 -0.0
  outer loop
    vertex 484.365190823594 1733.7364523222489 26.999999999999996
    vertex 466.5140834831774 1733.7364523222495 8.987449488923492
    vertex 467.3086765961668 1733.7364523222495 10.022983394856235
  endloop
endfacet
facet normal -0.0 1.0 -0.0
  outer loop
    vertex 484.365190823594 1733.7364523222489 26.999999999999996
    vertex 467.3086765961668 1733.7364523222495 10.022983394856235
    vertex 467.80817870869 1733.7364523222495 11.22888816934364
  endloop
endfacet
facet normal -0.0 1.0 -0.0
  outer loop
    vertex 484.365190823594 1733.7364523222489 26.999999999999996
    vertex 467.80817870869 1733.7364523222495 11.22888816934364
    vertex 467.9785495772446 1733.7364523222495 12.522983394856254
  endloop
endfacet
facet normal -0.0 1.0 -0.0
  outer loop
    vertex 484.365190823594 1733.7364523222489 26.999999999999996
    vertex 467.9785495772446 1733.7364523222495 12.522983394856254
    vertex 467.80817870869 1733.7364523222495 13.817078620368871
  endloop
endfacet
facet normal -0.0 1.0 -0.0
  outer loop
    vertex 484.365190823594 1733.7364523222489 26.999999999999996
    vertex 467.80817870869 1733.7364523222495 13.817078620368871
    vertex 467.3086765961668 1733.7364523222495 15.022983394856274
  endloop
endfacet
facet normal -0.0 1.0 -0.0
  outer loop
    vertex 484.365190823594 1733.7364523222489 26.999999999999996
    vertex 467.3086765961668 1733.7364523222495 15.022983394856274
    vertex 466.5140834831774 1733.7364523222495 16.058517300789017
  endloop
endfacet
facet normal -0.0 1.0 -0.0
  outer loop
    vertex 484.365190823594 1733.7364523222489 26.999999999999996
    vertex 466.5140834831774 1733.7364523222495 16.058517300789017
    vertex 465.47854957724456 1733.7364523222495 16.853110413778477
  endloop
endfacet
facet normal -0.0 1.0 -0.0
  outer loop
    vertex 484.365190823594 1733.7364523222489 26.999999999999996
    vertex 465.47854957724456 1733.7364523222495 16.853110413778477
    vertex 464.27264480275716 1733.7364523222495 17.352612526301634
  endloop
endfacet
facet normal -0.0 1.0 -0.0
  outer loop
    vertex 484.365190823594 1733.7364523222489 26.999999999999996
    vertex 464.27264480275716 1733.7364523222495 17.352612526301634
    vertex 462.97854957724456 1733.7364523222495 17.52298339485629
  endloop
endfacet
facet normal -0.0 1.0 -0.0
  outer loop
    vertex 484.365190823594 1733.7364523222489 26.999999999999996
    vertex 462.97854957724456 1733.7364523222495 17.52298339485629
    vertex 444.61197449171294 1733.7364523222489 26.999999999999996
  endloop
endfacet
facet normal 1.0 -0.0 -0.0
  outer loop
    vertex 444.61197449171294 1733.7364523222489 1.9999999999999998
    vertex 444.6119744917134 1747.7219302606534 8.495329176091744
    vertex 444.61197449171294 1733.7364523222489 26.999999999999996
  endloop
endfacet
facet normal 1.0 -0.0 -0.0
  outer loop
    vertex 444.6119744917134 1747.7219302606534 8.495329176091744
    vertex 444.61197449171294 1733.7364523222489 1.9999999999999998
    vertex 444.6119744917134 1748.6940405620664 7.624289425315073
  endloop
endfacet
facet normal 1.0 -0.0 -0.0
  outer loop
    vertex 444.6119744917134 1748.6940405620664 7.624289425315073
    vertex 444.61197449171294 1733.7364523222489 1.9999999999999998
    vertex 444.6119744917134 1749.8584686847455 7.03453029426157
  endloop
endfacet
facet normal 1.0 -0.0 -0.0
  outer loop
    vertex 444.6119744917134 1749.8584686847455 7.03453029426157
    vertex 444.61197449171294 1733.7364523222489 1.9999999999999998
    vertex 444.61197449171294 1770.2014523222497 1.9999999999999998
  endloop
endfacet
facet normal 1.0 -0.0 -0.0
  outer loop
    vertex 444.61197449171294 1733.7364523222489 26.999999999999996
    vertex 444.6119744917134 1747.7219302606534 8.495329176091744
    vertex 444.6119744917134 1747.0083854910592 9.588289627037392
  endloop
endfacet
facet normal 1.0 -0.0 -0.0
  outer loop
    vertex 444.61197449171294 1733.7364523222489 26.999999999999996
    vertex 444.6119744917134 1747.0083854910592 9.588289627037392
    vertex 444.6119744917134 1746.6020331501431 10.828687329622623
  endloop
endfacet
facet normal 1.0 -0.0 -0.0
  outer loop
    vertex 444.61197449171294 1733.7364523222489 26.999999999999996
    vertex 444.6119744917134 1746.6020331501431 10.828687329622623
    vertex 444.6119744917134 1746.5305654784102 12.131991230270378
  endloop
endfacet
facet normal 1.0 -0.0 -0.0
  outer loop
    vertex 444.6119744917134 1749.8584686847455 7.03453029426157
    vertex 444.61197449171294 1770.2014523222497 1.9999999999999998
    vertex 444.6119744917134 1751.1358607764382 6.76624289308948
  endloop
endfacet
facet normal 1.0 -0.0 -0.0
  outer loop
    vertex 444.6119744917134 1751.1358607764382 6.76624289308948
    vertex 444.61197449171294 1770.2014523222497 1.9999999999999998
    vertex 444.6119744917134 1752.439164677086 6.837710564822789
  endloop
endfacet
facet normal 1.0 -0.0 -0.0
  outer loop
    vertex 444.6119744917134 1752.439164677086 6.837710564822789
    vertex 444.61197449171294 1770.2014523222497 1.9999999999999998
    vertex 444.6119744917134 1753.6795623796713 7.244062905738781
  endloop
endfacet
facet normal 1.0 -0.0 -0.0
  outer loop
    vertex 444.6119744917134 1753.6795623796713 7.244062905738781
    vertex 444.61197449171294 1770.2014523222497 1.9999999999999998
    vertex 444.6119744917134 1754.772522830617 7.957607675333031
  endloop
endfacet
facet normal 1.0 -0.0 -0.0
  outer loop
    vertex 444.6119744917134 1754.772522830617 7.957607675333031
    vertex 444.61197449171294 1770.2014523222497 1.9999999999999998
    vertex 444.6119744917134 1755.6435625813936 8.929717976746174
  endloop
endfacet
facet normal 1.0 -0.0 -0.0
  outer loop
    vertex 444.6119744917134 1755.6435625813936 8.929717976746174
    vertex 444.61197449171294 1770.2014523222497 1.9999999999999998
    vertex 444.6119744917134 1756.2333217124472 10.09414609942513
  endloop
endfacet
facet normal 1.0 -0.0 -0.0
  outer loop
    vertex 444.6119744917134 1756.2333217124472 10.09414609942513
    vertex 444.61197449171294 1770.2014523222497 1.9999999999999998
    vertex 444.6119744917134 1756.501609113619 11.371538191117795
  endloop
endfacet
facet normal 1.0 -0.0 -0.0
  outer loop
    vertex 444.61197449171294 1733.7364523222489 26.999999999999996
    vertex 444.6119744917134 1749.3526122123578 16.25946651564939
    vertex 444.61197449171294 1770.2014523222497 26.999999999999996
  endloop
endfacet
facet normal 1.0 -0.0 -0.0
  outer loop
    vertex 444.6119744917134 1749.3526122123578 16.25946651564939
    vertex 444.61197449171294 1733.7364523222489 26.999999999999996
    vertex 444.6119744917134 1748.2596517614122 15.545921746055143
  endloop
endfacet
facet normal 1.0 -0.0 -0.0
  outer loop
    vertex 444.6119744917134 1748.2596517614122 15.545921746055143
    vertex 444.61197449171294 1733.7364523222489 26.999999999999996
    vertex 444.6119744917134 1747.3886120106356 14.573811444641999
  endloop
endfacet
facet normal 1.0 -0.0 -0.0
  outer loop
    vertex 444.6119744917134 1747.3886120106356 14.573811444641999
    vertex 444.61197449171294 1733.7364523222489 26.999999999999996
    vertex 444.6119744917134 1746.798852879582 13.40938332196304
  endloop
endfacet
facet normal 1.0 -0.0 -0.0
  outer loop
    vertex 444.6119744917134 1746.798852879582 13.40938332196304
    vertex 444.61197449171294 1733.7364523222489 26.999999999999996
    vertex 444.6119744917134 1746.5305654784102 12.131991230270378
  endloop
endfacet
facet normal 1.0 -0.0 -0.0
  outer loop
    vertex 444.61197449171294 1770.2014523222497 26.999999999999996
    vertex 444.6119744917134 1749.3526122123578 16.25946651564939
    vertex 444.6119744917134 1750.5930099149432 16.665818856565384
  endloop
endfacet
facet normal 1.0 -0.0 -0.0
  outer loop
    vertex 444.61197449171294 1770.2014523222497 26.999999999999996
    vertex 444.6119744917134 1750.5930099149432 16.665818856565384
    vertex 444.6119744917134 1751.896313815591 16.73728652829869
  endloop
endfacet
facet normal 1.0 -0.0 -0.0
  outer loop
    vertex 444.61197449171294 1770.2014523222497 26.999999999999996
    vertex 444.6119744917134 1751.896313815591 16.73728652829869
    vertex 444.6119744917134 1753.1737059072836 16.4689991271266
  endloop
endfacet
facet normal 1.0 -0.0 -0.0
  outer loop
    vertex 444.61197449171294 1770.2014523222497 26.999999999999996
    vertex 444.6119744917134 1753.1737059072836 16.4689991271266
    vertex 444.6119744917134 1754.3381340299627 15.879239996073098
  endloop
endfacet
facet normal 1.0 -0.0 -0.0
  outer loop
    vertex 444.61197449171294 1770.2014523222497 26.999999999999996
    vertex 444.6119744917134 1754.3381340299627 15.879239996073098
    vertex 444.6119744917134 1755.3102443313758 15.008200245296429
  endloop
endfacet
facet normal 1.0 -0.0 -0.0
  outer loop
    vertex 444.61197449171294 1770.2014523222497 26.999999999999996
    vertex 444.6119744917134 1755.3102443313758 15.008200245296429
    vertex 444.6119744917134 1756.02378910097 13.915239794350779
  endloop
endfacet
facet normal 1.0 -0.0 -0.0
  outer loop
    vertex 444.61197449171294 1770.2014523222497 26.999999999999996
    vertex 444.6119744917134 1756.02378910097 13.915239794350779
    vertex 444.6119744917134 1756.4301414418858 12.674842091765546
  endloop
endfacet
facet normal 1.0 -0.0 -0.0
  outer loop
    vertex 444.61197449171294 1770.2014523222497 26.999999999999996
    vertex 444.6119744917134 1756.4301414418858 12.674842091765546
    vertex 444.6119744917134 1756.501609113619 11.371538191117795
  endloop
endfacet
facet normal 1.0 -0.0 -0.0
  outer loop
    vertex 444.61197449171294 1770.2014523222497 26.999999999999996
    vertex 444.6119744917134 1756.501609113619 11.371538191117795
    vertex 444.61197449171294 1770.2014523222497 1.9999999999999998
  endloop
endfacet
facet normal -1.5330404452053606e-30 0.8921030353171271 -0.4518320200892902
  outer loop
    vertex 442.2882708976863 1747.3886120106356 14.573811444641999
    vertex 444.6119744917134 1746.798852879582 13.40938332196304
    vertex 442.2882708976863 1746.798852879582 13.40938332196304
  endloop
endfacet
facet normal -1.5330404452053606e-30 0.8921030353171271 -0.4518320200892902
  outer loop
    vertex 444.6119744917134 1746.798852879582 13.40938332196304
    vertex 442.2882708976863 1747.3886120106356 14.573811444641999
    vertex 444.6119744917134 1747.3886120106356 14.573811444641999
  endloop
endfacet
facet normal -2.2642110940052326e-30 0.7447626295374229 -0.6673294730824524
  outer loop
    vertex 442.2882708976863 1748.2596517614122 15.545921746055143
    vertex 444.6119744917134 1747.3886120106356 14.573811444641999
    vertex 442.2882708976863 1747.3886120106356 14.573811444641999
  endloop
endfacet
facet normal -2.2642110940052326e-30 0.7447626295374229 -0.6673294730824524
  outer loop
    vertex 444.6119744917134 1747.3886120106356 14.573811444641999
    vertex 442.2882708976863 1748.2596517614122 15.545921746055143
    vertex 444.6119744917134 1748.2596517614122 15.545921746055143
  endloop
endfacet
facet normal -2.8410794985343458e-30 0.5466678813331972 -0.8373495252991271
  outer loop
    vertex 444.6119744917134 1749.3526122123578 16.25946651564939
    vertex 442.2882708976863 1748.2596517614122 15.545921746055143
    vertex 442.2882708976863 1749.3526122123578 16.25946651564939
  endloop
endfacet
facet normal -2.8410794985343458e-30 0.5466678813331972 -0.8373495252991271
  outer loop
    vertex 442.2882708976863 1748.2596517614122 15.545921746055143
    vertex 444.6119744917134 1749.3526122123578 16.25946651564939
    vertex 444.6119744917134 1748.2596517614122 15.545921746055143
  endloop
endfacet
facet normal -3.224333030344297e-30 0.31131862042744385 -0.9503055911522109
  outer loop
    vertex 444.6119744917134 1750.5930099149432 16.665818856565384
    vertex 442.2882708976863 1749.3526122123578 16.25946651564939
    vertex 442.2882708976863 1750.5930099149432 16.665818856565384
  endloop
endfacet
facet normal -3.224333030344297e-30 0.31131862042744385 -0.9503055911522109
  outer loop
    vertex 442.2882708976863 1749.3526122123578 16.25946651564939
    vertex 444.6119744917134 1750.5930099149432 16.665818856565384
    vertex 444.6119744917134 1749.3526122123578 16.25946651564939
  endloop
endfacet
facet normal -3.3878535945984506e-30 0.05475351001799128 -0.9984999014224839
  outer loop
    vertex 444.6119744917134 1751.896313815591 16.73728652829869
    vertex 442.2882708976863 1750.5930099149432 16.665818856565384
    vertex 442.2882708976863 1751.896313815591 16.73728652829869
  endloop
endfacet
facet normal -3.3878535945984506e-30 0.05475351001799128 -0.9984999014224839
  outer loop
    vertex 442.2882708976863 1750.5930099149432 16.665818856565384
    vertex 444.6119744917134 1751.896313815591 16.73728652829869
    vertex 444.6119744917134 1750.5930099149432 16.665818856565384
  endloop
endfacet
facet normal -3.320497535073537e-30 -0.20554296161478272 -0.9786480935099316
  outer loop
    vertex 444.6119744917134 1753.1737059072836 16.4689991271266
    vertex 442.2882708976863 1751.896313815591 16.73728652829869
    vertex 442.2882708976863 1753.1737059072836 16.4689991271266
  endloop
endfacet
facet normal -3.320497535073537e-30 -0.20554296161478272 -0.9786480935099316
  outer loop
    vertex 442.2882708976863 1751.896313815591 16.73728652829869
    vertex 444.6119744917134 1753.1737059072836 16.4689991271266
    vertex 444.6119744917134 1751.896313815591 16.73728652829869
  endloop
endfacet
facet normal -3.026855055915072e-30 -0.45183202008925616 -0.8921030353171444
  outer loop
    vertex 444.6119744917134 1754.3381340299627 15.879239996073098
    vertex 442.2882708976863 1753.1737059072836 16.4689991271266
    vertex 442.2882708976863 1754.3381340299627 15.879239996073098
  endloop
endfacet
facet normal -3.026855055915072e-30 -0.45183202008925616 -0.8921030353171444
  outer loop
    vertex 442.2882708976863 1753.1737059072836 16.4689991271266
    vertex 444.6119744917134 1754.3381340299627 15.879239996073098
    vertex 444.6119744917134 1753.1737059072836 16.4689991271266
  endloop
endfacet
facet normal -2.52693740681032e-30 -0.6673294730824585 -0.7447626295374173
  outer loop
    vertex 444.6119744917134 1755.3102443313758 15.008200245296429
    vertex 442.2882708976863 1754.3381340299627 15.879239996073098
    vertex 442.2882708976863 1755.3102443313758 15.008200245296429
  endloop
endfacet
facet normal -2.52693740681032e-30 -0.6673294730824585 -0.7447626295374173
  outer loop
    vertex 442.2882708976863 1754.3381340299627 15.879239996073098
    vertex 444.6119744917134 1755.3102443313758 15.008200245296429
    vertex 444.6119744917134 1754.3381340299627 15.879239996073098
  endloop
endfacet
facet normal -1.8548131493929782e-30 -0.837349525299151 -0.5466678813331606
  outer loop
    vertex 444.6119744917134 1755.3102443313758 15.008200245296429
    vertex 442.2882708976863 1756.02378910097 13.915239794350779
    vertex 444.6119744917134 1756.02378910097 13.915239794350779
  endloop
endfacet
facet normal -1.8548131493929782e-30 -0.837349525299151 -0.5466678813331606
  outer loop
    vertex 442.2882708976863 1756.02378910097 13.915239794350779
    vertex 444.6119744917134 1755.3102443313758 15.008200245296429
    vertex 442.2882708976863 1755.3102443313758 15.008200245296429
  endloop
endfacet
facet normal -1.0562864410681653e-30 -0.9503055911522129 -0.3113186204274383
  outer loop
    vertex 444.6119744917134 1756.02378910097 13.915239794350779
    vertex 442.2882708976863 1756.4301414418858 12.674842091765546
    vertex 444.6119744917134 1756.4301414418858 12.674842091765546
  endloop
endfacet
facet normal -1.0562864410681653e-30 -0.9503055911522129 -0.3113186204274383
  outer loop
    vertex 442.2882708976863 1756.4301414418858 12.674842091765546
    vertex 444.6119744917134 1756.02378910097 13.915239794350779
    vertex 442.2882708976863 1756.02378910097 13.915239794350779
  endloop
endfacet
facet normal -1.857755573801107e-31 -0.9984999014224925 -0.054753510017835925
  outer loop
    vertex 444.6119744917134 1756.4301414418858 12.674842091765546
    vertex 442.2882708976863 1756.501609113619 11.371538191117795
    vertex 444.6119744917134 1756.501609113619 11.371538191117795
  endloop
endfacet
facet normal -1.857755573801107e-31 -0.9984999014224925 -0.054753510017835925
  outer loop
    vertex 442.2882708976863 1756.501609113619 11.371538191117795
    vertex 444.6119744917134 1756.4301414418858 12.674842091765546
    vertex 442.2882708976863 1756.4301414418858 12.674842091765546
  endloop
endfacet
facet normal 6.973956235334954e-31 -0.9786480935099594 0.20554296161465155
  outer loop
    vertex 444.6119744917134 1756.501609113619 11.371538191117795
    vertex 442.2882708976863 1756.2333217124472 10.09414609942513
    vertex 444.6119744917134 1756.2333217124472 10.09414609942513
  endloop
endfacet
facet normal 6.973956235334954e-31 -0.9786480935099594 0.20554296161465155
  outer loop
    vertex 442.2882708976863 1756.2333217124472 10.09414609942513
    vertex 444.6119744917134 1756.501609113619 11.371538191117795
    vertex 442.2882708976863 1756.501609113619 11.371538191117795
  endloop
endfacet
facet normal 1.5330404452053638e-30 -0.8921030353171268 0.4518320200892911
  outer loop
    vertex 444.6119744917134 1756.2333217124472 10.09414609942513
    vertex 442.2882708976863 1755.6435625813936 8.929717976746174
    vertex 444.6119744917134 1755.6435625813936 8.929717976746174
  endloop
endfacet
facet normal 1.5330404452053638e-30 -0.8921030353171268 0.4518320200892911
  outer loop
    vertex 442.2882708976863 1755.6435625813936 8.929717976746174
    vertex 444.6119744917134 1756.2333217124472 10.09414609942513
    vertex 442.2882708976863 1756.2333217124472 10.09414609942513
  endloop
endfacet
facet normal 2.264211094005234e-30 -0.7447626295374223 0.6673294730824528
  outer loop
    vertex 444.6119744917134 1755.6435625813936 8.929717976746174
    vertex 442.2882708976863 1754.772522830617 7.957607675333031
    vertex 444.6119744917134 1754.772522830617 7.957607675333031
  endloop
endfacet
facet normal 2.264211094005234e-30 -0.7447626295374223 0.6673294730824528
  outer loop
    vertex 442.2882708976863 1754.772522830617 7.957607675333031
    vertex 444.6119744917134 1755.6435625813936 8.929717976746174
    vertex 442.2882708976863 1755.6435625813936 8.929717976746174
  endloop
endfacet
facet normal 2.8410794985343426e-30 -0.5466678813331988 0.8373495252991262
  outer loop
    vertex 444.6119744917134 1753.6795623796713 7.244062905738781
    vertex 442.2882708976863 1754.772522830617 7.957607675333031
    vertex 442.2882708976863 1753.6795623796713 7.244062905738781
  endloop
endfacet
facet normal 2.8410794985343426e-30 -0.5466678813331988 0.8373495252991262
  outer loop
    vertex 442.2882708976863 1754.772522830617 7.957607675333031
    vertex 444.6119744917134 1753.6795623796713 7.244062905738781
    vertex 444.6119744917134 1754.772522830617 7.957607675333031
  endloop
endfacet
facet normal 3.2243330303442994e-30 -0.3113186204274419 0.9503055911522117
  outer loop
    vertex 444.6119744917134 1752.439164677086 6.837710564822789
    vertex 442.2882708976863 1753.6795623796713 7.244062905738781
    vertex 442.2882708976863 1752.439164677086 6.837710564822789
  endloop
endfacet
facet normal 3.2243330303442994e-30 -0.3113186204274419 0.9503055911522117
  outer loop
    vertex 442.2882708976863 1753.6795623796713 7.244062905738781
    vertex 444.6119744917134 1752.439164677086 6.837710564822789
    vertex 444.6119744917134 1753.6795623796713 7.244062905738781
  endloop
endfacet
facet normal 3.38785359459845e-30 -0.054753510017993424 0.9984999014224837
  outer loop
    vertex 444.6119744917134 1751.1358607764382 6.76624289308948
    vertex 442.2882708976863 1752.439164677086 6.837710564822789
    vertex 442.2882708976863 1751.1358607764382 6.76624289308948
  endloop
endfacet
facet normal 3.38785359459845e-30 -0.054753510017993424 0.9984999014224837
  outer loop
    vertex 442.2882708976863 1752.439164677086 6.837710564822789
    vertex 444.6119744917134 1751.1358607764382 6.76624289308948
    vertex 444.6119744917134 1752.439164677086 6.837710564822789
  endloop
endfacet
facet normal 3.320497535073537e-30 0.20554296161478272 0.9786480935099316
  outer loop
    vertex 444.6119744917134 1749.8584686847455 7.03453029426157
    vertex 442.2882708976863 1751.1358607764382 6.76624289308948
    vertex 442.2882708976863 1749.8584686847455 7.03453029426157
  endloop
endfacet
facet normal 3.320497535073537e-30 0.20554296161478272 0.9786480935099316
  outer loop
    vertex 442.2882708976863 1751.1358607764382 6.76624289308948
    vertex 444.6119744917134 1749.8584686847455 7.03453029426157
    vertex 444.6119744917134 1751.1358607764382 6.76624289308948
  endloop
endfacet
facet normal 3.026855055915072e-30 0.45183202008925616 0.8921030353171444
  outer loop
    vertex 444.6119744917134 1748.6940405620664 7.624289425315073
    vertex 442.2882708976863 1749.8584686847455 7.03453029426157
    vertex 442.2882708976863 1748.6940405620664 7.624289425315073
  endloop
endfacet
facet normal 3.026855055915072e-30 0.45183202008925616 0.8921030353171444
  outer loop
    vertex 442.2882708976863 1749.8584686847455 7.03453029426157
    vertex 444.6119744917134 1748.6940405620664 7.624289425315073
    vertex 444.6119744917134 1749.8584686847455 7.03453029426157
  endloop
endfacet
facet normal 2.526937406810318e-30 0.667329473082459 0.7447626295374168
  outer loop
    vertex 444.6119744917134 1747.7219302606534 8.495329176091744
    vertex 442.2882708976863 1748.6940405620664 7.624289425315073
    vertex 442.2882708976863 1747.7219302606534 8.495329176091744
  endloop
endfacet
facet normal 2.526937406810318e-30 0.667329473082459 0.7447626295374168
  outer loop
    vertex 442.2882708976863 1748.6940405620664 7.624289425315073
    vertex 444.6119744917134 1747.7219302606534 8.495329176091744
    vertex 444.6119744917134 1748.6940405620664 7.624289425315073
  endloop
endfacet
facet normal 1.8548131493929796e-30 0.8373495252991507 0.5466678813331611
  outer loop
    vertex 442.2882708976863 1747.0083854910592 9.588289627037392
    vertex 444.6119744917134 1747.7219302606534 8.495329176091744
    vertex 442.2882708976863 1747.7219302606534 8.495329176091744
  endloop
endfacet
facet normal 1.8548131493929796e-30 0.8373495252991507 0.5466678813331611
  outer loop
    vertex 444.6119744917134 1747.7219302606534 8.495329176091744
    vertex 442.2882708976863 1747.0083854910592 9.588289627037392
    vertex 444.6119744917134 1747.0083854910592 9.588289627037392
  endloop
endfacet
facet normal 1.0562864410681663e-30 0.9503055911522127 0.31131862042743863
  outer loop
    vertex 442.2882708976863 1746.6020331501431 10.828687329622623
    vertex 444.6119744917134 1747.0083854910592 9.588289627037392
    vertex 442.2882708976863 1747.0083854910592 9.588289627037392
  endloop
endfacet
facet normal 1.0562864410681663e-30 0.9503055911522127 0.31131862042743863
  outer loop
    vertex 444.6119744917134 1747.0083854910592 9.588289627037392
    vertex 442.2882708976863 1746.6020331501431 10.828687329622623
    vertex 444.6119744917134 1746.6020331501431 10.828687329622623
  endloop
endfacet
facet normal 1.8577555738011029e-31 0.9984999014224923 0.05475351001783581
  outer loop
    vertex 442.2882708976863 1746.5305654784102 12.131991230270378
    vertex 444.6119744917134 1746.6020331501431 10.828687329622623
    vertex 442.2882708976863 1746.6020331501431 10.828687329622623
  endloop
endfacet
facet normal 1.8577555738011029e-31 0.9984999014224923 0.05475351001783581
  outer loop
    vertex 444.6119744917134 1746.6020331501431 10.828687329622623
    vertex 442.2882708976863 1746.5305654784102 12.131991230270378
    vertex 444.6119744917134 1746.5305654784102 12.131991230270378
  endloop
endfacet
facet normal -6.973956235334968e-31 0.9786480935099592 -0.20554296161465196
  outer loop
    vertex 442.2882708976863 1746.798852879582 13.40938332196304
    vertex 444.6119744917134 1746.5305654784102 12.131991230270378
    vertex 442.2882708976863 1746.5305654784102 12.131991230270378
  endloop
endfacet
facet normal -6.973956235334968e-31 0.9786480935099592 -0.20554296161465196
  outer loop
    vertex 444.6119744917134 1746.5305654784102 12.131991230270378
    vertex 442.2882708976863 1746.798852879582 13.40938332196304
    vertex 444.6119744917134 1746.798852879582 13.40938332196304
  endloop
endfacet
facet normal -1.0 0.0 0.0
  outer loop
    vertex 484.365190823594 1770.2014523222497 26.999999999999996
    vertex 484.365190823594 1733.7364523222489 1.9999999999999998
    vertex 484.365190823594 1733.7364523222489 26.999999999999996
  endloop
endfacet
facet normal -1.0 0.0 0.0
  outer loop
    vertex 484.365190823594 1733.7364523222489 1.9999999999999998
    vertex 484.365190823594 1770.2014523222497 26.999999999999996
    vertex 484.365190823594 1770.2014523222497 1.9999999999999998
  endloop
endfacet
facet normal 0.9238795325112851 0.0 0.3826834323650942
  outer loop
    vertex 458.64842255832235 1733.7364523222495 10.022983394856235
    vertex 458.1489204457992 1731.5361759264913 11.228888169343639
    vertex 458.64842255832235 1731.5361759264913 10.022983394856235
  endloop
endfacet
facet normal 0.9238795325112851 0.0 0.3826834323650942
  outer loop
    vertex 458.1489204457992 1731.5361759264913 11.228888169343639
    vertex 458.64842255832235 1733.7364523222495 10.022983394856235
    vertex 458.1489204457992 1733.7364523222495 11.228888169343639
  endloop
endfacet
facet normal 0.7933533402912498 0.0 0.6087614290087018
  outer loop
    vertex 459.4430156713118 1733.7364523222495 8.98744948892349
    vertex 458.64842255832235 1731.5361759264913 10.022983394856235
    vertex 459.4430156713118 1731.5361759264913 8.98744948892349
  endloop
endfacet
facet normal 0.7933533402912498 0.0 0.6087614290087018
  outer loop
    vertex 458.64842255832235 1731.5361759264913 10.022983394856235
    vertex 459.4430156713118 1733.7364523222495 8.98744948892349
    vertex 458.64842255832235 1733.7364523222495 10.022983394856235
  endloop
endfacet
facet normal 0.6087614290086938 0.0 0.7933533402912558
  outer loop
    vertex 460.4785495772446 1731.5361759264913 8.192856375934028
    vertex 459.4430156713118 1733.7364523222495 8.98744948892349
    vertex 459.4430156713118 1731.5361759264913 8.98744948892349
  endloop
endfacet
facet normal 0.6087614290086938 0.0 0.7933533402912558
  outer loop
    vertex 459.4430156713118 1733.7364523222495 8.98744948892349
    vertex 460.4785495772446 1731.5361759264913 8.192856375934028
    vertex 460.4785495772446 1733.7364523222495 8.192856375934028
  endloop
endfacet
facet normal 0.3826834323650921 0.0 0.923879532511286
  outer loop
    vertex 461.684454351732 1731.5361759264913 7.693354263410878
    vertex 460.4785495772446 1733.7364523222495 8.192856375934028
    vertex 460.4785495772446 1731.5361759264913 8.192856375934028
  endloop
endfacet
facet normal 0.3826834323650921 0.0 0.923879532511286
  outer loop
    vertex 460.4785495772446 1733.7364523222495 8.192856375934028
    vertex 461.684454351732 1731.5361759264913 7.693354263410878
    vertex 461.684454351732 1733.7364523222495 7.693354263410878
  endloop
endfacet
facet normal 0.13052619222005515 0.0 0.9914448613738099
  outer loop
    vertex 462.97854957724456 1731.5361759264913 7.522983394856218
    vertex 461.684454351732 1733.7364523222495 7.693354263410878
    vertex 461.684454351732 1731.5361759264913 7.693354263410878
  endloop
endfacet
facet normal 0.13052619222005515 0.0 0.9914448613738099
  outer loop
    vertex 461.684454351732 1733.7364523222495 7.693354263410878
    vertex 462.97854957724456 1731.5361759264913 7.522983394856218
    vertex 462.97854957724456 1733.7364523222495 7.522983394856218
  endloop
endfacet
facet normal -0.13052619222005515 -0.0 0.9914448613738099
  outer loop
    vertex 464.27264480275716 1731.5361759264913 7.693354263410878
    vertex 462.97854957724456 1733.7364523222495 7.522983394856218
    vertex 462.97854957724456 1731.5361759264913 7.522983394856218
  endloop
endfacet
facet normal -0.13052619222005515 -0.0 0.9914448613738099
  outer loop
    vertex 462.97854957724456 1733.7364523222495 7.522983394856218
    vertex 464.27264480275716 1731.5361759264913 7.693354263410878
    vertex 464.27264480275716 1733.7364523222495 7.693354263410878
  endloop
endfacet
facet normal -0.38268343236506863 -0.0 0.9238795325112957
  outer loop
    vertex 465.4785495772446 1731.5361759264913 8.19285637593403
    vertex 464.27264480275716 1733.7364523222495 7.693354263410878
    vertex 464.27264480275716 1731.5361759264913 7.693354263410878
  endloop
endfacet
facet normal -0.38268343236506863 -0.0 0.9238795325112957
  outer loop
    vertex 464.27264480275716 1733.7364523222495 7.693354263410878
    vertex 465.4785495772446 1731.5361759264913 8.19285637593403
    vertex 465.4785495772446 1733.7364523222495 8.19285637593403
  endloop
endfacet
facet normal -0.6087614290087272 -0.0 0.7933533402912303
  outer loop
    vertex 466.5140834831774 1731.5361759264913 8.987449488923492
    vertex 465.4785495772446 1733.7364523222495 8.19285637593403
    vertex 465.4785495772446 1731.5361759264913 8.19285637593403
  endloop
endfacet
facet normal -0.6087614290087272 -0.0 0.7933533402912303
  outer loop
    vertex 465.4785495772446 1733.7364523222495 8.19285637593403
    vertex 466.5140834831774 1731.5361759264913 8.987449488923492
    vertex 466.5140834831774 1733.7364523222495 8.987449488923492
  endloop
endfacet
facet normal -0.7933533402912498 -0.0 0.6087614290087018
  outer loop
    vertex 467.3086765961668 1733.7364523222495 10.022983394856235
    vertex 466.5140834831774 1731.5361759264913 8.987449488923492
    vertex 467.3086765961668 1731.5361759264913 10.022983394856235
  endloop
endfacet
facet normal -0.7933533402912498 -0.0 0.6087614290087018
  outer loop
    vertex 466.5140834831774 1731.5361759264913 8.987449488923492
    vertex 467.3086765961668 1733.7364523222495 10.022983394856235
    vertex 466.5140834831774 1733.7364523222495 8.987449488923492
  endloop
endfacet
facet normal -0.9238795325112851 -0.0 0.3826834323650942
  outer loop
    vertex 467.80817870869 1733.7364523222495 11.22888816934364
    vertex 467.3086765961668 1731.5361759264913 10.022983394856235
    vertex 467.80817870869 1731.5361759264913 11.22888816934364
  endloop
endfacet
facet normal -0.9238795325112851 -0.0 0.3826834323650942
  outer loop
    vertex 467.3086765961668 1731.5361759264913 10.022983394856235
    vertex 467.80817870869 1733.7364523222495 11.22888816934364
    vertex 467.3086765961668 1733.7364523222495 10.022983394856235
  endloop
endfacet
facet normal -0.99144486137381 -0.0 0.13052619222005515
  outer loop
    vertex 467.9785495772446 1733.7364523222495 12.522983394856254
    vertex 467.80817870869 1731.5361759264913 11.22888816934364
    vertex 467.9785495772446 1731.5361759264913 12.522983394856254
  endloop
endfacet
facet normal -0.99144486137381 -0.0 0.13052619222005515
  outer loop
    vertex 467.80817870869 1731.5361759264913 11.22888816934364
    vertex 467.9785495772446 1733.7364523222495 12.522983394856254
    vertex 467.80817870869 1733.7364523222495 11.22888816934364
  endloop
endfacet
facet normal -0.99144486137381 -0.0 -0.13052619222005457
  outer loop
    vertex 467.80817870869 1733.7364523222495 13.817078620368871
    vertex 467.9785495772446 1731.5361759264913 12.522983394856254
    vertex 467.80817870869 1731.5361759264913 13.817078620368871
  endloop
endfacet
facet normal -0.99144486137381 -0.0 -0.13052619222005457
  outer loop
    vertex 467.9785495772446 1731.5361759264913 12.522983394856254
    vertex 467.80817870869 1733.7364523222495 13.817078620368871
    vertex 467.9785495772446 1733.7364523222495 12.522983394856254
  endloop
endfacet
facet normal -0.9238795325112845 -0.0 -0.3826834323650954
  outer loop
    vertex 467.3086765961668 1733.7364523222495 15.022983394856274
    vertex 467.80817870869 1731.5361759264913 13.817078620368871
    vertex 467.3086765961668 1731.5361759264913 15.022983394856274
  endloop
endfacet
facet normal -0.9238795325112845 -0.0 -0.3826834323650954
  outer loop
    vertex 467.80817870869 1731.5361759264913 13.817078620368871
    vertex 467.3086765961668 1733.7364523222495 15.022983394856274
    vertex 467.80817870869 1733.7364523222495 13.817078620368871
  endloop
endfacet
facet normal -0.7933533402912502 -0.0 -0.6087614290087012
  outer loop
    vertex 466.5140834831774 1733.7364523222495 16.058517300789017
    vertex 467.3086765961668 1731.5361759264913 15.022983394856274
    vertex 466.5140834831774 1731.5361759264913 16.058517300789017
  endloop
endfacet
facet normal -0.7933533402912502 -0.0 -0.6087614290087012
  outer loop
    vertex 467.3086765961668 1731.5361759264913 15.022983394856274
    vertex 466.5140834831774 1733.7364523222495 16.058517300789017
    vertex 467.3086765961668 1733.7364523222495 15.022983394856274
  endloop
endfacet
facet normal -0.6087614290086931 -0.0 -0.7933533402912564
  outer loop
    vertex 466.5140834831774 1733.7364523222495 16.058517300789017
    vertex 465.47854957724456 1731.5361759264913 16.853110413778477
    vertex 465.47854957724456 1733.7364523222495 16.853110413778477
  endloop
endfacet
facet normal -0.6087614290086931 -0.0 -0.7933533402912564
  outer loop
    vertex 465.47854957724456 1731.5361759264913 16.853110413778477
    vertex 466.5140834831774 1733.7364523222495 16.058517300789017
    vertex 466.5140834831774 1731.5361759264913 16.058517300789017
  endloop
endfacet
facet normal -0.38268343236509395 -0.0 -0.9238795325112851
  outer loop
    vertex 465.47854957724456 1733.7364523222495 16.853110413778477
    vertex 464.27264480275716 1731.5361759264913 17.352612526301634
    vertex 464.27264480275716 1733.7364523222495 17.352612526301634
  endloop
endfacet
facet normal -0.38268343236509395 -0.0 -0.9238795325112851
  outer loop
    vertex 464.27264480275716 1731.5361759264913 17.352612526301634
    vertex 465.47854957724456 1733.7364523222495 16.853110413778477
    vertex 465.47854957724456 1731.5361759264913 16.853110413778477
  endloop
endfacet
facet normal -0.1305261922200541 -0.0 -0.9914448613738102
  outer loop
    vertex 464.27264480275716 1733.7364523222495 17.352612526301634
    vertex 462.97854957724456 1731.5361759264913 17.52298339485629
    vertex 462.97854957724456 1733.7364523222495 17.52298339485629
  endloop
endfacet
facet normal -0.1305261922200541 -0.0 -0.9914448613738102
  outer loop
    vertex 462.97854957724456 1731.5361759264913 17.52298339485629
    vertex 464.27264480275716 1733.7364523222495 17.352612526301634
    vertex 464.27264480275716 1731.5361759264913 17.352612526301634
  endloop
endfacet
facet normal 0.13052619222005624 -0.0 -0.9914448613738098
  outer loop
    vertex 462.97854957724456 1733.7364523222495 17.52298339485629
    vertex 461.684454351732 1731.5361759264913 17.35261252630163
    vertex 461.684454351732 1733.7364523222495 17.35261252630163
  endloop
endfacet
facet normal 0.13052619222005624 -0.0 -0.9914448613738098
  outer loop
    vertex 461.684454351732 1731.5361759264913 17.35261252630163
    vertex 462.97854957724456 1733.7364523222495 17.52298339485629
    vertex 462.97854957724456 1731.5361759264913 17.52298339485629
  endloop
endfacet
facet normal 0.38268343236506946 -0.0 -0.9238795325112952
  outer loop
    vertex 461.684454351732 1733.7364523222495 17.35261252630163
    vertex 460.4785495772445 1731.5361759264913 16.853110413778477
    vertex 460.4785495772445 1733.7364523222495 16.853110413778477
  endloop
endfacet
facet normal 0.38268343236506946 -0.0 -0.9238795325112952
  outer loop
    vertex 460.4785495772445 1731.5361759264913 16.853110413778477
    vertex 461.684454351732 1733.7364523222495 17.35261252630163
    vertex 461.684454351732 1731.5361759264913 17.35261252630163
  endloop
endfacet
facet normal 0.6087614290087265 -0.0 -0.7933533402912308
  outer loop
    vertex 460.4785495772445 1733.7364523222495 16.853110413778477
    vertex 459.4430156713118 1731.5361759264913 16.058517300789017
    vertex 459.4430156713118 1733.7364523222495 16.058517300789017
  endloop
endfacet
facet normal 0.6087614290087265 -0.0 -0.7933533402912308
  outer loop
    vertex 459.4430156713118 1731.5361759264913 16.058517300789017
    vertex 460.4785495772445 1733.7364523222495 16.853110413778477
    vertex 460.4785495772445 1731.5361759264913 16.853110413778477
  endloop
endfacet
facet normal 0.7933533402912502 -0.0 -0.6087614290087012
  outer loop
    vertex 458.64842255832235 1733.7364523222495 15.02298339485627
    vertex 459.4430156713118 1731.5361759264913 16.058517300789017
    vertex 458.64842255832235 1731.5361759264913 15.02298339485627
  endloop
endfacet
facet normal 0.7933533402912502 -0.0 -0.6087614290087012
  outer loop
    vertex 459.4430156713118 1731.5361759264913 16.058517300789017
    vertex 458.64842255832235 1733.7364523222495 15.02298339485627
    vertex 459.4430156713118 1733.7364523222495 16.058517300789017
  endloop
endfacet
facet normal 0.9238795325112853 -0.0 -0.3826834323650939
  outer loop
    vertex 458.1489204457992 1733.7364523222495 13.817078620368862
    vertex 458.64842255832235 1731.5361759264913 15.02298339485627
    vertex 458.1489204457992 1731.5361759264913 13.817078620368862
  endloop
endfacet
facet normal 0.9238795325112853 -0.0 -0.3826834323650939
  outer loop
    vertex 458.64842255832235 1731.5361759264913 15.02298339485627
    vertex 458.1489204457992 1733.7364523222495 13.817078620368862
    vertex 458.64842255832235 1733.7364523222495 15.02298339485627
  endloop
endfacet
facet normal 0.99144486137381 -0.0 -0.13052619222005543
  outer loop
    vertex 457.97854957724456 1733.7364523222495 12.522983394856254
    vertex 458.1489204457992 1731.5361759264913 13.817078620368862
    vertex 457.97854957724456 1731.5361759264913 12.522983394856254
  endloop
endfacet
facet normal 0.99144486137381 -0.0 -0.13052619222005543
  outer loop
    vertex 458.1489204457992 1731.5361759264913 13.817078620368862
    vertex 457.97854957724456 1733.7364523222495 12.522983394856254
    vertex 458.1489204457992 1733.7364523222495 13.817078620368862
  endloop
endfacet
facet normal 0.99144486137381 0.0 0.13052619222005502
  outer loop
    vertex 458.1489204457992 1733.7364523222495 11.228888169343639
    vertex 457.97854957724456 1731.5361759264913 12.522983394856254
    vertex 458.1489204457992 1731.5361759264913 11.228888169343639
  endloop
endfacet
facet normal 0.99144486137381 0.0 0.13052619222005502
  outer loop
    vertex 457.97854957724456 1731.5361759264913 12.522983394856254
    vertex 458.1489204457992 1733.7364523222495 11.228888169343639
    vertex 457.97854957724456 1733.7364523222495 12.522983394856254
  endloop
endfacet
facet normal 0.0 0.0 1.0
  outer loop
    vertex 484.2832107238974 1793.417213385345 3.0
    vertex 444.5299943920164 1829.8822133853457 3.0
    vertex 444.5299943920164 1793.417213385345 3.0
  endloop
endfacet
facet normal 0.0 0.0 1.0
  outer loop
    vertex 444.5299943920164 1829.8822133853457 3.0
    vertex 484.2832107238974 1793.417213385345 3.0
    vertex 484.2832107238974 1829.8822133853457 3.0
  endloop
endfacet
facet normal 1.0 0.0 0.0
  outer loop
    vertex 484.2832107238974 1829.8822133853457 0.0
    vertex 484.2832107238974 1793.417213385345 3.0
    vertex 484.2832107238974 1793.417213385345 0.0
  endloop
endfacet
facet normal 1.0 0.0 0.0
  outer loop
    vertex 484.2832107238974 1793.417213385345 3.0
    vertex 484.2832107238974 1829.8822133853457 0.0
    vertex 484.2832107238974 1829.8822133853457 3.0
  endloop
endfacet
facet normal -0.0 -1.0 -0.0
  outer loop
    vertex 484.2832107238974 1793.417213385345 3.0
    vertex 444.5299943920164 1793.417213385345 0.0
    vertex 484.2832107238974 1793.417213385345 0.0
  endloop
endfacet
facet normal -0.0 -1.0 -0.0
  outer loop
    vertex 444.5299943920164 1793.417213385345 0.0
    vertex 484.2832107238974 1793.417213385345 3.0
    vertex 444.5299943920164 1793.417213385345 3.0
  endloop
endfacet
facet normal -1.0 0.0 0.0
  outer loop
    vertex 444.5299943920164 1829.8822133853457 3.0
    vertex 444.5299943920164 1793.417213385345 0.0
    vertex 444.5299943920164 1793.417213385345 3.0
  endloop
endfacet
facet normal -1.0 0.0 0.0
  outer loop
    vertex 444.5299943920164 1793.417213385345 0.0
    vertex 444.5299943920164 1829.8822133853457 3.0
    vertex 444.5299943920164 1829.8822133853457 0.0
  endloop
endfacet
facet normal -0.0 1.0 0.0
  outer loop
    vertex 444.5299943920164 1829.8822133853457 3.0
    vertex 484.2832107238974 1829.8822133853457 0.0
    vertex 444.5299943920164 1829.8822133853457 0.0
  endloop
endfacet
facet normal -0.0 1.0 0.0
  outer loop
    vertex 484.2832107238974 1829.8822133853457 0.0
    vertex 444.5299943920164 1829.8822133853457 3.0
    vertex 484.2832107238974 1829.8822133853457 3.0
  endloop
endfacet
endsolid Untitled-58c63536
