solid case botones
facet normal 0.0 0.0 -1.0
  outer loop
    vertex 588.7706202562786 438.7278029927701 0.0
    vertex 590.889332861298 437.01063343164964 0.0
    vertex 588.7706202562786 410.81376299276997 0.0
  endloop
endfacet
facet normal 0.0 0.0 -1.0
  outer loop
    vertex 590.889332861298 437.01063343164964 0.0
    vertex 588.7706202562786 438.7278029927701 0.0
    vertex 627.8880223774075 438.7278029927701 0.0
  endloop
endfacet
facet normal 0.0 0.0 -1.0
  outer loop
    vertex 590.889332861298 437.01063343164964 0.0
    vertex 627.8880223774075 438.7278029927701 0.0
    vertex 626.9665328612987 437.01063343164964 0.0
  endloop
endfacet
facet normal 0.0 0.0 -1.0
  outer loop
    vertex 626.9665328612987 437.01063343164964 0.0
    vertex 627.8880223774075 438.7278029927701 0.0
    vertex 626.9665328612987 412.83123343164976 0.0
  endloop
endfacet
facet normal 0.0 0.0 -1.0
  outer loop
    vertex 588.7706202562786 410.81376299276997 0.0
    vertex 590.889332861298 412.83123343164976 0.0
    vertex 628.9413823774073 410.81376299276997 0.0
  endloop
endfacet
facet normal 0.0 0.0 -1.0
  outer loop
    vertex 590.889332861298 412.83123343164976 0.0
    vertex 588.7706202562786 410.81376299276997 0.0
    vertex 590.889332861298 437.01063343164964 0.0
  endloop
endfacet
facet normal 0.0 0.0 -1.0
  outer loop
    vertex 628.9413823774073 410.81376299276997 0.0
    vertex 590.889332861298 412.83123343164976 0.0
    vertex 626.9665328612987 412.83123343164976 0.0
  endloop
endfacet
facet normal 0.0 0.0 -1.0
  outer loop
    vertex 628.9413823774073 410.81376299276997 0.0
    vertex 626.9665328612987 412.83123343164976 0.0
    vertex 627.8880223774075 438.7278029927701 0.0
  endloop
endfacet
facet normal 0.0 0.0 -1.0
  outer loop
    vertex 628.9413823774073 410.81376299276997 0.0
    vertex 627.8880223774075 438.7278029927701 0.0
    vertex 628.9413823774073 438.7278029927701 0.0
  endloop
endfacet
facet normal 4.2433917548787235e-17 -2.0990643793089428e-16 1.0
  outer loop
    vertex 588.7706202562786 410.81376299276997 12.999999999999998
    vertex 590.889332861298 412.83123343164976 12.999999999999998
    vertex 588.7706202562786 438.7278029927701 12.999999999999998
  endloop
endfacet
facet normal 4.2433917548787235e-17 -2.0990643793089428e-16 1.0
  outer loop
    vertex 590.889332861298 412.83123343164976 12.999999999999998
    vertex 588.7706202562786 410.81376299276997 12.999999999999998
    vertex 628.9413823774073 410.81376299276997 12.999999999999998
  endloop
endfacet
facet normal 4.2433917548787235e-17 -2.0990643793089428e-16 1.0
  outer loop
    vertex 590.889332861298 412.83123343164976 12.999999999999998
    vertex 628.9413823774073 410.81376299276997 12.999999999999998
    vertex 626.9665328612987 412.83123343164976 12.999999999999998
  endloop
endfacet
facet normal 4.2433917548787235e-17 -2.0990643793089428e-16 1.0
  outer loop
    vertex 626.9665328612987 412.83123343164976 12.999999999999998
    vertex 628.9413823774073 410.81376299276997 12.999999999999998
    vertex 626.9665328612987 437.01063343164964 12.999999999999998
  endloop
endfacet
facet normal 4.2433917548787235e-17 -2.0990643793089428e-16 1.0
  outer loop
    vertex 626.9665328612987 437.01063343164964 12.999999999999998
    vertex 628.9413823774073 410.81376299276997 12.999999999999998
    vertex 627.8880223774075 438.7278029927701 12.999999999999998
  endloop
endfacet
facet normal 4.2433917548787235e-17 -2.0990643793089428e-16 1.0
  outer loop
    vertex 627.8880223774075 438.7278029927701 12.999999999999998
    vertex 628.9413823774073 410.81376299276997 12.999999999999998
    vertex 628.9413823774073 438.7278029927701 12.999999999999998
  endloop
endfacet
facet normal 4.2433917548787235e-17 -2.0990643793089428e-16 1.0
  outer loop
    vertex 588.7706202562786 438.7278029927701 12.999999999999998
    vertex 590.889332861298 437.01063343164964 12.999999999999998
    vertex 627.8880223774075 438.7278029927701 12.999999999999998
  endloop
endfacet
facet normal 4.2433917548787235e-17 -2.0990643793089428e-16 1.0
  outer loop
    vertex 590.889332861298 437.01063343164964 12.999999999999998
    vertex 588.7706202562786 438.7278029927701 12.999999999999998
    vertex 590.889332861298 412.83123343164976 12.999999999999998
  endloop
endfacet
facet normal 4.2433917548787235e-17 -2.0990643793089428e-16 1.0
  outer loop
    vertex 627.8880223774075 438.7278029927701 12.999999999999998
    vertex 590.889332861298 437.01063343164964 12.999999999999998
    vertex 626.9665328612987 437.01063343164964 12.999999999999998
  endloop
endfacet
facet normal -1.0 0.0 4.2433917548787235e-17
  outer loop
    vertex 588.7706202562786 438.7278029927701 12.999999999999998
    vertex 588.7706202562786 410.81376299276997 0.0
    vertex 588.7706202562786 410.81376299276997 12.999999999999998
  endloop
endfacet
facet normal -1.0 0.0 4.2433917548787235e-17
  outer loop
    vertex 588.7706202562786 410.81376299276997 0.0
    vertex 588.7706202562786 438.7278029927701 12.999999999999998
    vertex 588.7706202562786 438.7278029927701 0.0
  endloop
endfacet
facet normal -0.0 1.0 2.0990643793089428e-16
  outer loop
    vertex 588.7706202562786 438.7278029927701 12.999999999999998
    vertex 627.8880223774075 438.7278029927701 0.0
    vertex 588.7706202562786 438.7278029927701 0.0
  endloop
endfacet
facet normal -0.0 1.0 2.0990643793089428e-16
  outer loop
    vertex 627.8880223774075 438.7278029927701 0.0
    vertex 588.7706202562786 438.7278029927701 12.999999999999998
    vertex 627.8880223774075 438.7278029927701 12.999999999999998
  endloop
endfacet
facet normal -0.0 1.0 2.0990643793089428e-16
  outer loop
    vertex 627.8880223774075 438.7278029927701 12.999999999999998
    vertex 628.9413823774073 438.7278029927701 0.0
    vertex 627.8880223774075 438.7278029927701 0.0
  endloop
endfacet
facet normal -0.0 1.0 2.0990643793089428e-16
  outer loop
    vertex 628.9413823774073 438.7278029927701 0.0
    vertex 627.8880223774075 438.7278029927701 12.999999999999998
    vertex 628.9413823774073 438.7278029927701 12.999999999999998
  endloop
endfacet
facet normal 1.0 0.0 -4.2433917548787235e-17
  outer loop
    vertex 628.9413823774073 438.7278029927701 0.0
    vertex 628.9413823774073 410.81376299276997 12.999999999999998
    vertex 628.9413823774073 410.81376299276997 0.0
  endloop
endfacet
facet normal 1.0 0.0 -4.2433917548787235e-17
  outer loop
    vertex 628.9413823774073 410.81376299276997 12.999999999999998
    vertex 628.9413823774073 438.7278029927701 0.0
    vertex 628.9413823774073 438.7278029927701 12.999999999999998
  endloop
endfacet
facet normal -0.0 -1.0 -2.0990643793089428e-16
  outer loop
    vertex 628.9413823774073 410.81376299276997 12.999999999999998
    vertex 588.7706202562786 410.81376299276997 0.0
    vertex 628.9413823774073 410.81376299276997 0.0
  endloop
endfacet
facet normal -0.0 -1.0 -2.0990643793089428e-16
  outer loop
    vertex 588.7706202562786 410.81376299276997 0.0
    vertex 628.9413823774073 410.81376299276997 12.999999999999998
    vertex 588.7706202562786 410.81376299276997 12.999999999999998
  endloop
endfacet
facet normal -1.0 0.0 0.0
  outer loop
    vertex 626.9665328612987 437.01063343164964 12.999999999999998
    vertex 626.9665328612987 412.83123343164976 3.000000000000085
    vertex 626.9665328612987 412.83123343164976 12.999999999999998
  endloop
endfacet
facet normal -1.0 0.0 0.0
  outer loop
    vertex 626.9665328612987 412.83123343164976 3.000000000000085
    vertex 626.9665328612987 437.01063343164964 12.999999999999998
    vertex 626.9665328612987 437.01063343164964 3.000000000000085
  endloop
endfacet
facet normal 0.0 -1.0 0.0
  outer loop
    vertex 626.9665328612987 437.01063343164964 12.999999999999998
    vertex 590.889332861298 437.01063343164964 3.000000000000085
    vertex 626.9665328612987 437.01063343164964 3.000000000000085
  endloop
endfacet
facet normal 0.0 -1.0 0.0
  outer loop
    vertex 590.889332861298 437.01063343164964 3.000000000000085
    vertex 626.9665328612987 437.01063343164964 12.999999999999998
    vertex 590.889332861298 437.01063343164964 12.999999999999998
  endloop
endfacet
facet normal 1.0 -0.0 -0.0
  outer loop
    vertex 590.889332861298 437.01063343164964 3.000000000000085
    vertex 590.889332861298 412.83123343164976 12.999999999999998
    vertex 590.889332861298 412.83123343164976 3.000000000000085
  endloop
endfacet
facet normal 1.0 -0.0 -0.0
  outer loop
    vertex 590.889332861298 412.83123343164976 12.999999999999998
    vertex 590.889332861298 437.01063343164964 3.000000000000085
    vertex 590.889332861298 437.01063343164964 12.999999999999998
  endloop
endfacet
facet normal -0.0 1.0 -0.0
  outer loop
    vertex 590.889332861298 412.83123343164976 12.999999999999998
    vertex 626.9665328612987 412.83123343164976 3.000000000000085
    vertex 590.889332861298 412.83123343164976 3.000000000000085
  endloop
endfacet
facet normal -0.0 1.0 -0.0
  outer loop
    vertex 626.9665328612987 412.83123343164976 3.000000000000085
    vertex 590.889332861298 412.83123343164976 12.999999999999998
    vertex 626.9665328612987 412.83123343164976 12.999999999999998
  endloop
endfacet
facet normal 0.0 0.0 -1.0
  outer loop
    vertex 590.889332861298 437.01063343164964 0.0
    vertex 597.0054532745701 432.5282006408837 4.511946372076636e-14
    vertex 590.889332861298 412.83123343164976 0.0
  endloop
endfacet
facet normal 0.0 0.0 -1.0
  outer loop
    vertex 597.0054532745701 432.5282006408837 4.511946372076636e-14
    vertex 590.889332861298 437.01063343164964 0.0
    vertex 626.9665328612987 437.01063343164964 0.0
  endloop
endfacet
facet normal 0.0 0.0 -1.0
  outer loop
    vertex 597.0054532745701 432.5282006408837 4.511946372076636e-14
    vertex 626.9665328612987 437.01063343164964 0.0
    vertex 602.0176137842757 432.5282006408837 4.511946372076636e-14
  endloop
endfacet
facet normal 0.0 0.0 -1.0
  outer loop
    vertex 602.0176137842757 432.5282006408837 4.511946372076636e-14
    vertex 626.9665328612987 437.01063343164964 0.0
    vertex 613.2399660046942 432.38935613941766 8.495149028675541e-14
  endloop
endfacet
facet normal 0.0 0.0 -1.0
  outer loop
    vertex 602.0176137842757 432.5282006408837 4.511946372076636e-14
    vertex 613.2399660046942 432.38935613941766 8.495149028675541e-14
    vertex 602.0176137842757 415.9541929971274 4.511946372076636e-14
  endloop
endfacet
facet normal 0.0 0.0 -1.0
  outer loop
    vertex 613.2399660046942 432.38935613941766 8.495149028675541e-14
    vertex 626.9665328612987 437.01063343164964 0.0
    vertex 618.2521265144 432.38935613941766 4.511946372076636e-14
  endloop
endfacet
facet normal 0.0 0.0 -1.0
  outer loop
    vertex 618.2521265144 432.38935613941766 4.511946372076636e-14
    vertex 626.9665328612987 437.01063343164964 0.0
    vertex 618.2521265144 415.81534849566134 8.495149028675541e-14
  endloop
endfacet
facet normal 0.0 0.0 -1.0
  outer loop
    vertex 590.889332861298 412.83123343164976 0.0
    vertex 597.0054532745701 415.9541929971274 4.511946372076636e-14
    vertex 626.9665328612987 412.83123343164976 0.0
  endloop
endfacet
facet normal 0.0 0.0 -1.0
  outer loop
    vertex 597.0054532745701 415.9541929971274 4.511946372076636e-14
    vertex 590.889332861298 412.83123343164976 0.0
    vertex 597.0054532745701 432.5282006408837 4.511946372076636e-14
  endloop
endfacet
facet normal 0.0 0.0 -1.0
  outer loop
    vertex 626.9665328612987 412.83123343164976 0.0
    vertex 597.0054532745701 415.9541929971274 4.511946372076636e-14
    vertex 602.0176137842757 415.9541929971274 4.511946372076636e-14
  endloop
endfacet
facet normal 0.0 0.0 -1.0
  outer loop
    vertex 626.9665328612987 412.83123343164976 0.0
    vertex 602.0176137842757 415.9541929971274 4.511946372076636e-14
    vertex 613.2399660046942 415.81534849566134 8.495149028675541e-14
  endloop
endfacet
facet normal 0.0 0.0 -1.0
  outer loop
    vertex 613.2399660046942 415.81534849566134 8.495149028675541e-14
    vertex 602.0176137842757 415.9541929971274 4.511946372076636e-14
    vertex 613.2399660046942 432.38935613941766 8.495149028675541e-14
  endloop
endfacet
facet normal 0.0 0.0 -1.0
  outer loop
    vertex 626.9665328612987 412.83123343164976 0.0
    vertex 613.2399660046942 415.81534849566134 8.495149028675541e-14
    vertex 618.2521265144 415.81534849566134 8.495149028675541e-14
  endloop
endfacet
facet normal 0.0 0.0 -1.0
  outer loop
    vertex 626.9665328612987 412.83123343164976 0.0
    vertex 618.2521265144 415.81534849566134 8.495149028675541e-14
    vertex 626.9665328612987 437.01063343164964 0.0
  endloop
endfacet
facet normal 0.0 -1.0 0.0
  outer loop
    vertex 602.0176137842757 432.5282006408837 3.000000000000045
    vertex 597.0054532745701 432.5282006408837 4.511946372076636e-14
    vertex 602.0176137842757 432.5282006408837 4.511946372076636e-14
  endloop
endfacet
facet normal 0.0 -1.0 0.0
  outer loop
    vertex 597.0054532745701 432.5282006408837 4.511946372076636e-14
    vertex 602.0176137842757 432.5282006408837 3.000000000000045
    vertex 597.0054532745701 432.5282006408837 3.000000000000045
  endloop
endfacet
facet normal 1.0 -0.0 -0.0
  outer loop
    vertex 597.0054532745701 432.5282006408837 4.511946372076636e-14
    vertex 597.0054532745701 415.9541929971274 3.000000000000045
    vertex 597.0054532745701 415.9541929971274 4.511946372076636e-14
  endloop
endfacet
facet normal 1.0 -0.0 -0.0
  outer loop
    vertex 597.0054532745701 415.9541929971274 3.000000000000045
    vertex 597.0054532745701 432.5282006408837 4.511946372076636e-14
    vertex 597.0054532745701 415.9541929971274 7.0000000000000435
  endloop
endfacet
facet normal 1.0 -0.0 -0.0
  outer loop
    vertex 597.0054532745701 415.9541929971274 7.0000000000000435
    vertex 597.0054532745701 432.5282006408837 4.511946372076636e-14
    vertex 597.0054532745701 432.5282006408837 7.0000000000000435
  endloop
endfacet
facet normal 1.0 -0.0 -0.0
  outer loop
    vertex 597.0054532745701 432.5282006408837 7.0000000000000435
    vertex 597.0054532745701 432.5282006408837 4.511946372076636e-14
    vertex 597.0054532745701 432.5282006408837 3.000000000000045
  endloop
endfacet
facet normal -0.0 1.0 -0.0
  outer loop
    vertex 597.0054532745701 415.9541929971274 3.000000000000045
    vertex 602.0176137842757 415.9541929971274 4.511946372076636e-14
    vertex 597.0054532745701 415.9541929971274 4.511946372076636e-14
  endloop
endfacet
facet normal -0.0 1.0 -0.0
  outer loop
    vertex 602.0176137842757 415.9541929971274 4.511946372076636e-14
    vertex 597.0054532745701 415.9541929971274 3.000000000000045
    vertex 602.0176137842757 415.9541929971274 3.000000000000045
  endloop
endfacet
facet normal -1.0 0.0 0.0
  outer loop
    vertex 602.0176137842757 432.5282006408837 7.0000000000000435
    vertex 602.0176137842757 415.9541929971274 3.000000000000045
    vertex 602.0176137842757 415.9541929971274 7.0000000000000435
  endloop
endfacet
facet normal -1.0 0.0 0.0
  outer loop
    vertex 602.0176137842757 415.9541929971274 3.000000000000045
    vertex 602.0176137842757 432.5282006408837 7.0000000000000435
    vertex 602.0176137842757 415.9541929971274 4.511946372076636e-14
  endloop
endfacet
facet normal -1.0 0.0 0.0
  outer loop
    vertex 602.0176137842757 415.9541929971274 4.511946372076636e-14
    vertex 602.0176137842757 432.5282006408837 7.0000000000000435
    vertex 602.0176137842757 432.5282006408837 4.511946372076636e-14
  endloop
endfacet
facet normal -1.0 0.0 0.0
  outer loop
    vertex 602.0176137842757 432.5282006408837 4.511946372076636e-14
    vertex 602.0176137842757 432.5282006408837 7.0000000000000435
    vertex 602.0176137842757 432.5282006408837 3.000000000000045
  endloop
endfacet
facet normal -0.0 1.0 -0.0
  outer loop
    vertex 613.2399660046942 415.81534849566134 3.0000000000000857
    vertex 618.2521265144 415.81534849566134 8.495149028675541e-14
    vertex 613.2399660046942 415.81534849566134 8.495149028675541e-14
  endloop
endfacet
facet normal -0.0 1.0 -0.0
  outer loop
    vertex 618.2521265144 415.81534849566134 8.495149028675541e-14
    vertex 613.2399660046942 415.81534849566134 3.0000000000000857
    vertex 618.2521265144 415.81534849566134 3.0000000000000857
  endloop
endfacet
facet normal -1.0 0.0 0.0
  outer loop
    vertex 618.2521265144 432.38935613941766 7.000000000000084
    vertex 618.2521265144 415.81534849566134 3.0000000000000857
    vertex 618.2521265144 415.81534849566134 7.000000000000084
  endloop
endfacet
facet normal -1.0 0.0 0.0
  outer loop
    vertex 618.2521265144 415.81534849566134 3.0000000000000857
    vertex 618.2521265144 432.38935613941766 7.000000000000084
    vertex 618.2521265144 415.81534849566134 8.495149028675541e-14
  endloop
endfacet
facet normal -1.0 0.0 0.0
  outer loop
    vertex 618.2521265144 415.81534849566134 8.495149028675541e-14
    vertex 618.2521265144 432.38935613941766 7.000000000000084
    vertex 618.2521265144 432.38935613941766 4.511946372076636e-14
  endloop
endfacet
facet normal -1.0 0.0 0.0
  outer loop
    vertex 618.2521265144 432.38935613941766 4.511946372076636e-14
    vertex 618.2521265144 432.38935613941766 7.000000000000084
    vertex 618.2521265144 432.38935613941766 3.0000000000000857
  endloop
endfacet
facet normal 0.0 -1.0 0.0
  outer loop
    vertex 618.2521265144 432.38935613941766 3.0000000000000857
    vertex 613.2399660046942 432.38935613941766 8.495149028675541e-14
    vertex 618.2521265144 432.38935613941766 4.511946372076636e-14
  endloop
endfacet
facet normal 0.0 -1.0 0.0
  outer loop
    vertex 613.2399660046942 432.38935613941766 8.495149028675541e-14
    vertex 618.2521265144 432.38935613941766 3.0000000000000857
    vertex 613.2399660046942 432.38935613941766 3.0000000000000857
  endloop
endfacet
facet normal 1.0 -0.0 -0.0
  outer loop
    vertex 613.2399660046942 432.38935613941766 8.495149028675541e-14
    vertex 613.2399660046942 415.81534849566134 3.0000000000000857
    vertex 613.2399660046942 415.81534849566134 8.495149028675541e-14
  endloop
endfacet
facet normal 1.0 -0.0 -0.0
  outer loop
    vertex 613.2399660046942 415.81534849566134 3.0000000000000857
    vertex 613.2399660046942 432.38935613941766 8.495149028675541e-14
    vertex 613.2399660046942 415.81534849566134 7.000000000000084
  endloop
endfacet
facet normal 1.0 -0.0 -0.0
  outer loop
    vertex 613.2399660046942 415.81534849566134 7.000000000000084
    vertex 613.2399660046942 432.38935613941766 8.495149028675541e-14
    vertex 613.2399660046942 432.38935613941766 7.000000000000084
  endloop
endfacet
facet normal 1.0 -0.0 -0.0
  outer loop
    vertex 613.2399660046942 432.38935613941766 7.000000000000084
    vertex 613.2399660046942 432.38935613941766 8.495149028675541e-14
    vertex 613.2399660046942 432.38935613941766 3.0000000000000857
  endloop
endfacet
facet normal -1.0 0.0 0.0
  outer loop
    vertex 626.9665328612987 437.01063343164964 3.000000000000085
    vertex 626.9665328612987 412.83123343164976 0.0
    vertex 626.9665328612987 412.83123343164976 3.000000000000085
  endloop
endfacet
facet normal -1.0 0.0 0.0
  outer loop
    vertex 626.9665328612987 412.83123343164976 0.0
    vertex 626.9665328612987 437.01063343164964 3.000000000000085
    vertex 626.9665328612987 437.01063343164964 0.0
  endloop
endfacet
facet normal 0.0 -1.0 0.0
  outer loop
    vertex 626.9665328612987 437.01063343164964 3.000000000000085
    vertex 590.889332861298 437.01063343164964 0.0
    vertex 626.9665328612987 437.01063343164964 0.0
  endloop
endfacet
facet normal 0.0 -1.0 0.0
  outer loop
    vertex 590.889332861298 437.01063343164964 0.0
    vertex 626.9665328612987 437.01063343164964 3.000000000000085
    vertex 590.889332861298 437.01063343164964 3.000000000000085
  endloop
endfacet
facet normal -0.0 1.0 -0.0
  outer loop
    vertex 590.889332861298 412.83123343164976 3.000000000000085
    vertex 626.9665328612987 412.83123343164976 0.0
    vertex 590.889332861298 412.83123343164976 0.0
  endloop
endfacet
facet normal -0.0 1.0 -0.0
  outer loop
    vertex 626.9665328612987 412.83123343164976 0.0
    vertex 590.889332861298 412.83123343164976 3.000000000000085
    vertex 626.9665328612987 412.83123343164976 3.000000000000085
  endloop
endfacet
facet normal 1.0 -0.0 -0.0
  outer loop
    vertex 590.889332861298 437.01063343164964 0.0
    vertex 590.889332861298 412.83123343164976 3.000000000000085
    vertex 590.889332861298 412.83123343164976 0.0
  endloop
endfacet
facet normal 1.0 -0.0 -0.0
  outer loop
    vertex 590.889332861298 412.83123343164976 3.000000000000085
    vertex 590.889332861298 437.01063343164964 0.0
    vertex 590.889332861298 437.01063343164964 3.000000000000085
  endloop
endfacet
facet normal -0.0 -0.0 1.0
  outer loop
    vertex 590.889332861298 412.83123343164976 3.000000000000085
    vertex 595.00545327457 415.9541929971274 3.000000000000045
    vertex 590.889332861298 437.01063343164964 3.000000000000085
  endloop
endfacet
facet normal -0.0 -0.0 1.0
  outer loop
    vertex 595.00545327457 415.9541929971274 3.000000000000045
    vertex 590.889332861298 412.83123343164976 3.000000000000085
    vertex 626.9665328612987 412.83123343164976 3.000000000000085
  endloop
endfacet
facet normal -0.0 -0.0 1.0
  outer loop
    vertex 595.00545327457 415.9541929971274 3.000000000000045
    vertex 626.9665328612987 412.83123343164976 3.000000000000085
    vertex 597.0054532745701 415.9541929971274 3.000000000000045
  endloop
endfacet
facet normal -0.0 -0.0 1.0
  outer loop
    vertex 597.0054532745701 415.9541929971274 3.000000000000045
    vertex 626.9665328612987 412.83123343164976 3.000000000000085
    vertex 602.0176137842757 415.9541929971274 3.000000000000045
  endloop
endfacet
facet normal -0.0 -0.0 1.0
  outer loop
    vertex 602.0176137842757 415.9541929971274 3.000000000000045
    vertex 626.9665328612987 412.83123343164976 3.000000000000085
    vertex 604.0176137842758 415.9541929971274 3.000000000000045
  endloop
endfacet
facet normal -0.0 -0.0 1.0
  outer loop
    vertex 604.0176137842758 415.9541929971274 3.000000000000045
    vertex 626.9665328612987 412.83123343164976 3.000000000000085
    vertex 611.2399660046941 415.81534849566134 3.0000000000000857
  endloop
endfacet
facet normal -0.0 -0.0 1.0
  outer loop
    vertex 604.0176137842758 415.9541929971274 3.000000000000045
    vertex 611.2399660046941 415.81534849566134 3.0000000000000857
    vertex 604.0176137842758 432.5282006408837 3.000000000000045
  endloop
endfacet
facet normal -0.0 -0.0 1.0
  outer loop
    vertex 611.2399660046941 415.81534849566134 3.0000000000000857
    vertex 626.9665328612987 412.83123343164976 3.000000000000085
    vertex 613.2399660046942 415.81534849566134 3.0000000000000857
  endloop
endfacet
facet normal -0.0 -0.0 1.0
  outer loop
    vertex 613.2399660046942 415.81534849566134 3.0000000000000857
    vertex 626.9665328612987 412.83123343164976 3.000000000000085
    vertex 618.2521265144 415.81534849566134 3.0000000000000857
  endloop
endfacet
facet normal -0.0 -0.0 1.0
  outer loop
    vertex 618.2521265144 415.81534849566134 3.0000000000000857
    vertex 626.9665328612987 412.83123343164976 3.000000000000085
    vertex 620.2521265144 415.81534849566134 3.0000000000000857
  endloop
endfacet
facet normal -0.0 -0.0 1.0
  outer loop
    vertex 620.2521265144 415.81534849566134 3.0000000000000857
    vertex 626.9665328612987 412.83123343164976 3.000000000000085
    vertex 620.2521265144 432.38935613941766 3.0000000000000857
  endloop
endfacet
facet normal -0.0 -0.0 1.0
  outer loop
    vertex 590.889332861298 437.01063343164964 3.000000000000085
    vertex 595.00545327457 432.5282006408837 3.000000000000045
    vertex 626.9665328612987 437.01063343164964 3.000000000000085
  endloop
endfacet
facet normal -0.0 -0.0 1.0
  outer loop
    vertex 595.00545327457 432.5282006408837 3.000000000000045
    vertex 590.889332861298 437.01063343164964 3.000000000000085
    vertex 595.00545327457 415.9541929971274 3.000000000000045
  endloop
endfacet
facet normal -0.0 -0.0 1.0
  outer loop
    vertex 626.9665328612987 437.01063343164964 3.000000000000085
    vertex 595.00545327457 432.5282006408837 3.000000000000045
    vertex 597.0054532745701 432.5282006408837 3.000000000000045
  endloop
endfacet
facet normal -0.0 -0.0 1.0
  outer loop
    vertex 626.9665328612987 437.01063343164964 3.000000000000085
    vertex 597.0054532745701 432.5282006408837 3.000000000000045
    vertex 602.0176137842757 432.5282006408837 3.000000000000045
  endloop
endfacet
facet normal -0.0 -0.0 1.0
  outer loop
    vertex 626.9665328612987 437.01063343164964 3.000000000000085
    vertex 602.0176137842757 432.5282006408837 3.000000000000045
    vertex 604.0176137842758 432.5282006408837 3.000000000000045
  endloop
endfacet
facet normal -0.0 -0.0 1.0
  outer loop
    vertex 626.9665328612987 437.01063343164964 3.000000000000085
    vertex 604.0176137842758 432.5282006408837 3.000000000000045
    vertex 611.2399660046941 432.38935613941766 3.0000000000000857
  endloop
endfacet
facet normal -0.0 -0.0 1.0
  outer loop
    vertex 611.2399660046941 432.38935613941766 3.0000000000000857
    vertex 604.0176137842758 432.5282006408837 3.000000000000045
    vertex 611.2399660046941 415.81534849566134 3.0000000000000857
  endloop
endfacet
facet normal -0.0 -0.0 1.0
  outer loop
    vertex 626.9665328612987 437.01063343164964 3.000000000000085
    vertex 611.2399660046941 432.38935613941766 3.0000000000000857
    vertex 613.2399660046942 432.38935613941766 3.0000000000000857
  endloop
endfacet
facet normal -0.0 -0.0 1.0
  outer loop
    vertex 626.9665328612987 437.01063343164964 3.000000000000085
    vertex 613.2399660046942 432.38935613941766 3.0000000000000857
    vertex 618.2521265144 432.38935613941766 3.0000000000000857
  endloop
endfacet
facet normal -0.0 -0.0 1.0
  outer loop
    vertex 626.9665328612987 437.01063343164964 3.000000000000085
    vertex 618.2521265144 432.38935613941766 3.0000000000000857
    vertex 620.2521265144 432.38935613941766 3.0000000000000857
  endloop
endfacet
facet normal -0.0 -0.0 1.0
  outer loop
    vertex 626.9665328612987 437.01063343164964 3.000000000000085
    vertex 620.2521265144 432.38935613941766 3.0000000000000857
    vertex 626.9665328612987 412.83123343164976 3.000000000000085
  endloop
endfacet
facet normal 0.0 0.0 1.0
  outer loop
    vertex 604.0176137842758 415.9541929971274 7.0000000000000435
    vertex 602.0176137842757 432.5282006408837 7.0000000000000435
    vertex 602.0176137842757 415.9541929971274 7.0000000000000435
  endloop
endfacet
facet normal 0.0 0.0 1.0
  outer loop
    vertex 602.0176137842757 432.5282006408837 7.0000000000000435
    vertex 604.0176137842758 415.9541929971274 7.0000000000000435
    vertex 604.0176137842758 432.5282006408837 7.0000000000000435
  endloop
endfacet
facet normal 0.0 -1.0 0.0
  outer loop
    vertex 604.0176137842758 415.9541929971274 7.0000000000000435
    vertex 602.0176137842757 415.9541929971274 3.000000000000045
    vertex 604.0176137842758 415.9541929971274 3.000000000000045
  endloop
endfacet
facet normal 0.0 -1.0 0.0
  outer loop
    vertex 602.0176137842757 415.9541929971274 3.000000000000045
    vertex 604.0176137842758 415.9541929971274 7.0000000000000435
    vertex 602.0176137842757 415.9541929971274 7.0000000000000435
  endloop
endfacet
facet normal 1.0 0.0 0.0
  outer loop
    vertex 604.0176137842758 432.5282006408837 3.000000000000045
    vertex 604.0176137842758 415.9541929971274 7.0000000000000435
    vertex 604.0176137842758 415.9541929971274 3.000000000000045
  endloop
endfacet
facet normal 1.0 0.0 0.0
  outer loop
    vertex 604.0176137842758 415.9541929971274 7.0000000000000435
    vertex 604.0176137842758 432.5282006408837 3.000000000000045
    vertex 604.0176137842758 432.5282006408837 7.0000000000000435
  endloop
endfacet
facet normal 0.0 1.0 0.0
  outer loop
    vertex 602.0176137842757 432.5282006408837 7.0000000000000435
    vertex 604.0176137842758 432.5282006408837 3.000000000000045
    vertex 602.0176137842757 432.5282006408837 3.000000000000045
  endloop
endfacet
facet normal 0.0 1.0 0.0
  outer loop
    vertex 604.0176137842758 432.5282006408837 3.000000000000045
    vertex 602.0176137842757 432.5282006408837 7.0000000000000435
    vertex 604.0176137842758 432.5282006408837 7.0000000000000435
  endloop
endfacet
facet normal 0.0 0.0 1.0
  outer loop
    vertex 597.0054532745701 415.9541929971274 7.0000000000000435
    vertex 595.00545327457 432.5282006408837 7.0000000000000435
    vertex 595.00545327457 415.9541929971274 7.0000000000000435
  endloop
endfacet
facet normal 0.0 0.0 1.0
  outer loop
    vertex 595.00545327457 432.5282006408837 7.0000000000000435
    vertex 597.0054532745701 415.9541929971274 7.0000000000000435
    vertex 597.0054532745701 432.5282006408837 7.0000000000000435
  endloop
endfacet
facet normal 0.0 1.0 0.0
  outer loop
    vertex 595.00545327457 432.5282006408837 7.0000000000000435
    vertex 597.0054532745701 432.5282006408837 3.000000000000045
    vertex 595.00545327457 432.5282006408837 3.000000000000045
  endloop
endfacet
facet normal 0.0 1.0 0.0
  outer loop
    vertex 597.0054532745701 432.5282006408837 3.000000000000045
    vertex 595.00545327457 432.5282006408837 7.0000000000000435
    vertex 597.0054532745701 432.5282006408837 7.0000000000000435
  endloop
endfacet
facet normal -1.0 -0.0 -0.0
  outer loop
    vertex 595.00545327457 432.5282006408837 7.0000000000000435
    vertex 595.00545327457 415.9541929971274 3.000000000000045
    vertex 595.00545327457 415.9541929971274 7.0000000000000435
  endloop
endfacet
facet normal -1.0 -0.0 -0.0
  outer loop
    vertex 595.00545327457 415.9541929971274 3.000000000000045
    vertex 595.00545327457 432.5282006408837 7.0000000000000435
    vertex 595.00545327457 432.5282006408837 3.000000000000045
  endloop
endfacet
facet normal 0.0 -1.0 0.0
  outer loop
    vertex 597.0054532745701 415.9541929971274 7.0000000000000435
    vertex 595.00545327457 415.9541929971274 3.000000000000045
    vertex 597.0054532745701 415.9541929971274 3.000000000000045
  endloop
endfacet
facet normal 0.0 -1.0 0.0
  outer loop
    vertex 595.00545327457 415.9541929971274 3.000000000000045
    vertex 597.0054532745701 415.9541929971274 7.0000000000000435
    vertex 595.00545327457 415.9541929971274 7.0000000000000435
  endloop
endfacet
facet normal 0.0 0.0 1.0
  outer loop
    vertex 613.2399660046942 415.81534849566134 7.000000000000084
    vertex 611.2399660046941 432.38935613941766 7.000000000000084
    vertex 611.2399660046941 415.81534849566134 7.000000000000084
  endloop
endfacet
facet normal 0.0 0.0 1.0
  outer loop
    vertex 611.2399660046941 432.38935613941766 7.000000000000084
    vertex 613.2399660046942 415.81534849566134 7.000000000000084
    vertex 613.2399660046942 432.38935613941766 7.000000000000084
  endloop
endfacet
facet normal 0.0 1.0 0.0
  outer loop
    vertex 611.2399660046941 432.38935613941766 7.000000000000084
    vertex 613.2399660046942 432.38935613941766 3.0000000000000857
    vertex 611.2399660046941 432.38935613941766 3.0000000000000857
  endloop
endfacet
facet normal 0.0 1.0 0.0
  outer loop
    vertex 613.2399660046942 432.38935613941766 3.0000000000000857
    vertex 611.2399660046941 432.38935613941766 7.000000000000084
    vertex 613.2399660046942 432.38935613941766 7.000000000000084
  endloop
endfacet
facet normal -1.0 -0.0 -0.0
  outer loop
    vertex 611.2399660046941 432.38935613941766 7.000000000000084
    vertex 611.2399660046941 415.81534849566134 3.0000000000000857
    vertex 611.2399660046941 415.81534849566134 7.000000000000084
  endloop
endfacet
facet normal -1.0 -0.0 -0.0
  outer loop
    vertex 611.2399660046941 415.81534849566134 3.0000000000000857
    vertex 611.2399660046941 432.38935613941766 7.000000000000084
    vertex 611.2399660046941 432.38935613941766 3.0000000000000857
  endloop
endfacet
facet normal 0.0 -1.0 0.0
  outer loop
    vertex 613.2399660046942 415.81534849566134 7.000000000000084
    vertex 611.2399660046941 415.81534849566134 3.0000000000000857
    vertex 613.2399660046942 415.81534849566134 3.0000000000000857
  endloop
endfacet
facet normal 0.0 -1.0 0.0
  outer loop
    vertex 611.2399660046941 415.81534849566134 3.0000000000000857
    vertex 613.2399660046942 415.81534849566134 7.000000000000084
    vertex 611.2399660046941 415.81534849566134 7.000000000000084
  endloop
endfacet
facet normal 0.0 0.0 1.0
  outer loop
    vertex 620.2521265144 415.81534849566134 7.000000000000084
    vertex 618.2521265144 432.38935613941766 7.000000000000084
    vertex 618.2521265144 415.81534849566134 7.000000000000084
  endloop
endfacet
facet normal 0.0 0.0 1.0
  outer loop
    vertex 618.2521265144 432.38935613941766 7.000000000000084
    vertex 620.2521265144 415.81534849566134 7.000000000000084
    vertex 620.2521265144 432.38935613941766 7.000000000000084
  endloop
endfacet
facet normal 0.0 -1.0 0.0
  outer loop
    vertex 620.2521265144 415.81534849566134 7.000000000000084
    vertex 618.2521265144 415.81534849566134 3.0000000000000857
    vertex 620.2521265144 415.81534849566134 3.0000000000000857
  endloop
endfacet
facet normal 0.0 -1.0 0.0
  outer loop
    vertex 618.2521265144 415.81534849566134 3.0000000000000857
    vertex 620.2521265144 415.81534849566134 7.000000000000084
    vertex 618.2521265144 415.81534849566134 7.000000000000084
  endloop
endfacet
facet normal 1.0 0.0 0.0
  outer loop
    vertex 620.2521265144 432.38935613941766 3.0000000000000857
    vertex 620.2521265144 415.81534849566134 7.000000000000084
    vertex 620.2521265144 415.81534849566134 3.0000000000000857
  endloop
endfacet
facet normal 1.0 0.0 0.0
  outer loop
    vertex 620.2521265144 415.81534849566134 7.000000000000084
    vertex 620.2521265144 432.38935613941766 3.0000000000000857
    vertex 620.2521265144 432.38935613941766 7.000000000000084
  endloop
endfacet
facet normal 0.0 1.0 0.0
  outer loop
    vertex 618.2521265144 432.38935613941766 7.000000000000084
    vertex 620.2521265144 432.38935613941766 3.0000000000000857
    vertex 618.2521265144 432.38935613941766 3.0000000000000857
  endloop
endfacet
facet normal 0.0 1.0 0.0
  outer loop
    vertex 620.2521265144 432.38935613941766 3.0000000000000857
    vertex 618.2521265144 432.38935613941766 7.000000000000084
    vertex 620.2521265144 432.38935613941766 7.000000000000084
  endloop
endfacet
endsolid case botones
